<?xml version="1.0" standalone="no"?>
<!DOCTYPE svg PUBLIC "-//W3C//DTD SVG 20010904//EN"
 "http://www.w3.org/TR/2001/REC-SVG-20010904/DTD/svg10.dtd">
<svg version="1.0" xmlns="http://www.w3.org/2000/svg"
 width="512.000000pt" height="512.000000pt" viewBox="0 0 512.000000 512.000000"
 preserveAspectRatio="xMidYMid meet">
<metadata>
Created by potrace 1.14, written by Peter Selinger 2001-2017
</metadata>
<g transform="translate(0.000000,512.000000) scale(0.100000,-0.100000)"
fill="#000000" stroke="none">
<path d="M1727 4954 c-1 -1 -40 -4 -87 -7 -223 -15 -475 -105 -680 -241 -93
-63 -272 -239 -330 -326 -50 -77 -124 -210 -115 -210 3 0 -1 -10 -9 -22 -30
-48 -81 -243 -93 -354 -12 -121 -6 -327 12 -376 2 -7 7 -24 9 -38 32 -163 117
-364 206 -486 192 -263 399 -421 660 -505 53 -18 70 -27 70 -41 0 -31 -38 -96
-81 -139 l-40 -40 -33 24 c-38 30 -90 45 -131 40 -31 -4 -95 -42 -95 -56 0 -5
-8 -6 -17 -3 -10 3 -39 6 -64 7 -116 5 -224 -113 -233 -252 -15 -223 133 -421
344 -459 79 -15 193 -7 277 19 l61 19 5 -22 c9 -41 52 -151 62 -159 5 -4 18
-5 28 -3 13 3 24 -10 46 -58 41 -92 92 -121 223 -129 60 -4 72 -9 114 -43 26
-22 64 -57 83 -78 71 -77 135 -138 191 -181 68 -52 222 -136 345 -187 70 -29
89 -41 88 -55 -2 -10 -6 -50 -9 -88 -17 -179 86 -304 250 -306 68 -1 86 2 138
24 91 38 193 173 259 344 l8 21 78 -25 c43 -14 112 -34 153 -45 l75 -19 -2
-60 c-4 -189 116 -320 282 -307 92 8 165 46 215 112 39 52 95 161 105 206 3
14 12 52 19 85 9 38 13 104 12 180 -2 101 -6 126 -24 160 -24 45 -46 75 -55
75 -3 0 -32 17 -64 39 -68 45 -197 158 -168 147 56 -21 154 -37 195 -32 60 8
100 38 150 112 69 101 81 109 175 108 129 -1 175 -22 296 -134 15 -14 39 -35
53 -48 l25 -23 16 53 c37 117 24 255 -33 358 -33 60 -108 141 -149 163 -34 17
-234 138 -361 218 -51 33 -95 59 -97 59 -3 0 -29 16 -59 35 -30 19 -57 35 -60
35 -3 0 -49 29 -103 63 -54 35 -102 66 -108 68 -12 5 -126 73 -300 180 -71 44
-199 121 -283 171 -151 90 -166 102 -176 149 -3 13 -10 41 -15 62 -8 35 -7 41
18 65 68 67 127 182 147 287 16 88 2 261 -28 325 -6 14 -12 31 -14 38 -2 11
-48 78 -63 92 -4 3 -7 52 -7 110 -2 126 -9 182 -39 318 -12 52 -40 123 -87
221 -205 429 -546 687 -988 750 -69 10 -188 19 -193 15z"/>
</g>
</svg>
