<?xml version="1.0" encoding="utf-8"?>
<!-- Generator: Adobe Illustrator 26.4.1, SVG Export Plug-In . SVG Version: 6.00 Build 0)  -->
<svg version="1.1" id="Layer_1" xmlns="http://www.w3.org/2000/svg" xmlns:xlink="http://www.w3.org/1999/xlink" x="0px" y="0px"
	 viewBox="0 0 958 350" style="enable-background:new 0 0 958 350;" xml:space="preserve">
<style type="text/css">
	.st0{fill:#FFFFFF;}
	.st1{fill:#F7921E;}
	.st2{opacity:0.35;}
	.st3{fill:#3C1847;}
	.st4{fill:#010101;}
	.st5{opacity:0.7;}
	.st6{fill:#253959;}
	.st7{fill:#24112D;}
	.st8{opacity:0.6;}
</style>
<g>
	<g>
		<g>
			<g>
				<path class="st0" d="M395.2,78.9L404,78v17.4c4.2-1.8,11-4,16.7-4c14,0,22.4,7.2,22.4,20.1V135l-8.8,0.9v-24.5
					c0-7.5-2.1-11.8-14.6-11.8c-4.3,0-11.3,1.5-15.8,3.6V135l-8.8,0.9L395.2,78.9L395.2,78.9z"/>
				<path class="st0" d="M494.1,118.3l-36.4-0.2c1.5,5.3,5.9,9.6,15.9,9.6c5.8,0,11.8-1.2,15.4-2.4l2.5,7.7
					c-3.8,1.7-11.2,3.1-18.1,3.1c-15,0-25.1-9.1-25.1-22.5c0-13.3,9.6-22.4,24.6-22.4c11.2,0,21.5,6.6,21.5,20.3
					C494.5,114.7,494.1,118.3,494.1,118.3z M457.4,110l28.2-0.2c-0.1-7.6-5.4-10.5-12.4-10.5C463,99.3,458.5,104.2,457.4,110z"/>
				<path class="st0" d="M534.8,92.1l-1.9,8.2c0,0-3.5-1-8.5-1c-4.2,0-11.2,1.6-15.1,3.8v31.7l-8.7,0.9V92.4l7.3-0.6l0.6,3.6
					c4-1.8,10.8-4.3,16.9-4.3C531.7,91.1,534.8,92.1,534.8,92.1z"/>
				<path class="st0" d="M535.1,113.5c0-13.3,10.4-22.4,25.9-22.4s26,9.1,26,22.4c0,13.4-10.5,22.5-26,22.5S535.1,126.9,535.1,113.5
					z M544,113.5c0,4,1.7,14.1,17,14.1s17-10.1,17-14.1s-1.7-14-17-14S544,109.5,544,113.5z"/>
			</g>
			<g>
				<path class="st0" d="M311.8,111.4c0-7.5-2.1-11.8-12.1-11.8c-3.6,0-9.3,1.1-13.8,2.8c1,2.5,1.6,5.6,1.6,9V135l-8.8,0.9v-24.5
					c0-7.5-2.1-11.8-12.1-11.8c-4.1,0-10.6,1.5-15.1,3.5V135l-8.8,0.9V92.6l7.4-0.6l0.6,3.6c4.1-1.8,10.8-4.3,16.8-4.3
					c5.9,0,10.8,1.7,14.3,5c3.8-1.9,12.1-5,18.9-5c12.3,0,19.9,7.2,19.9,20.1V135l-8.7,0.9L311.8,111.4z"/>
				<path class="st0" d="M366.3,92l-23.8,61.9l-10.3,0.9l8.3-18.9h-1.8L322,92.6l9.6-0.4l12.5,35.4l12.5-35.2L366.3,92z"/>
			</g>
		</g>
		<g>
			<path class="st0" d="M458.4,164.8l-35.9,114.4h-44.6l-27.7-65.5l-27.1,65.5h-44.6l-35.9-112.5l41.4-1.8l19.1,68.7l24.6-66.6
				l45.7-2l24.6,68.4l18.9-66.6L458.4,164.8z"/>
			<path class="st0" d="M556.3,272.4c-9.8,4.3-21.6,7.7-33.2,7.7c-39.1,0-63.4-23.4-63.4-58.4s23.9-58.4,63-58.4
				c10.9,0,23,3.9,32.7,8.2l3.6-6.6l28,1.8v112.5h-27.3L556.3,272.4z M548.1,239.6v-35.5c-7.5-2-15.9-3.6-23-3.6
				c-22.5,0-26.6,13-26.6,21.1s4.1,21.1,26.6,21.1C533.8,242.8,541.5,241.4,548.1,239.6z"/>
			<path class="st0" d="M609.4,136l38.7-2.3v145.5h-38.7V136z"/>
			<path class="st0" d="M670.1,136l38.7-2.3v145.5h-38.7V136z"/>
			<path class="st0" d="M843.8,234.6l-78.7,0.2c2.7,6.4,9.3,12,26.1,12c15.2,0,31.8-2.3,41.4-5l5.2,31.6
				c-11.8,4.3-29.1,6.6-47.1,6.6c-39.1,0-66.4-23.4-66.4-58.4s25.9-58.4,65-58.4c29.1,0,55.2,18.9,55.2,54.3
				C844.7,226.4,843.8,234.6,843.8,234.6z M765.6,207.8l40-0.9c0-3.9-1.8-13.4-15.7-13.4C775.4,193.5,768.8,200.1,765.6,207.8z"/>
			<path class="st0" d="M874.2,165.1l9.8-25l27.5-1.8v26.8H949l-2.7,37.1h-34.8v34.1c0,6.4,5.2,6.6,13.9,6.6
				c13.2,0,22.7-1.6,22.7-1.6l5,36.2c0,0-14.1,2.7-29.1,2.7c-24.1,0-51.2-6.4-51.2-41.4v-36.6h-19.3l3-37.1L874.2,165.1L874.2,165.1
				z"/>
		</g>
	</g>
	<g>
		<g>
			<g>
				<path class="st1" d="M294.5,260.5c-1.7-0.6-3.5-1.1-5.4-1.5l0,0c-5.4-1-11.2-0.9-14.2,1.6c-3.1,2.7-4.9,6-6.9,8.8
					c-2.4,3.3-5.1,5.8-10.8,5.3c-0.6-0.1-1.2-0.1-1.8-0.2c-8.6-1.4-14.8-7.1-18.9,2l-19.9-38.8l-34.4-66.9l84.5,57.2l28,31.5
					C295.5,260.3,295.4,260.8,294.5,260.5z"/>
			</g>
		</g>
		<g class="st2">
			<g>
				<path class="st3" d="M289.1,259c-5.4-1-11.2-0.9-14.2,1.6c-3.1,2.7-4.9,6-6.9,8.8c0.3-2.3,0.1-5.2-1.5-8.9
					c-3.9-8.5-54.6-47.1-51.3-49.3C217.3,210,288,258.3,289.1,259z"/>
			</g>
		</g>
		<g class="st2">
			<g>
				<path class="st3" d="M255.4,274.5c-8.6-1.4-14.8-7.1-18.9,2l-19.9-38.8C232.7,252.7,250.8,270.1,255.4,274.5z"/>
			</g>
		</g>
		<g>
			<g>
				<path class="st3" d="M181.6,170.1l85.3,57.8l28,31.5c0.5,0.4,0.7,0.8,0.6,1.1c-0.1,0.2-0.4,0.4-1,0.1
					c-6.5-2.4-15.5-3.2-19.3,0.1c-2.3,2-3.9,4.3-5.4,6.6c-2.9,4.4-5.5,8.2-12.5,7.6c-3-0.2-5.7-1.1-8.1-1.9c-5.4-1.7-9.4-3-12.3,3.5
					l-0.2,0.5L181.6,170.1z M249.2,272.7c2.4,0.8,5.1,1.6,8,1.9c6.8,0.5,9.2-3.1,12.1-7.4c1.5-2.3,3.1-4.6,5.5-6.7
					c3.9-3.4,13.1-2.6,19.8-0.2c0.1,0,0.2,0.1,0.3,0.1c0.1,0,0.1,0,0.2,0c0-0.1-0.1-0.3-0.5-0.5l-28-31.5l-83.7-56.7L236.5,276
					c2.2-4.6,5.1-5.2,8.5-4.5C246.3,271.7,247.7,272.2,249.2,272.7z"/>
			</g>
		</g>
		<g>
			<g>
				<path class="st4" d="M176.1,164l91.9,62.3l0.2,0.2l28,31.6c1.5,1.3,1.4,2.7,0.9,3.6s-1.7,1.7-3.5,1c-5.9-2.2-14.2-2.9-17.3-0.3
					c-2.1,1.8-3.6,4-5,6.2c-3,4.5-6.2,9.2-14.4,8.5c-3.2-0.3-6.1-1.2-8.6-2c-5.8-1.8-7.7-2.2-9.8,2.4l-1.9,4.3L176.1,164z
					 M249.8,270.7c2.4,0.8,4.9,1.5,7.6,1.8c5.6,0.5,7.4-2.3,10.2-6.5c1.5-2.3,3.3-4.8,5.8-7.1c3.5-3,9.7-3.3,15.5-2.3l-23.8-26.8
					l-76.8-52.1l48.4,94.2c2.6-2.9,5.7-3,8.8-2.4C247,269.8,248.4,270.3,249.8,270.7z M294.7,259.6L294.7,259.6L294.7,259.6z"/>
			</g>
		</g>
		<g>
			<g>
				<path class="st1" d="M154.9,151.1l141.4,85.7c11.9,7.2,17.1,21.7,12.5,34.8l0,0c0,0-19.5-17.4-34-30.2
					C246.5,216.5,154.9,151.1,154.9,151.1z"/>
			</g>
		</g>
		<g class="st5">
			<g>
				<path class="st0" d="M308.8,271.7c0,0-0.8-0.7-2.2-1.9c2.1-11.8-3.2-23.8-13.7-30.2l-97.5-59.1c-22.1-16.2-39.8-28.8-40.5-29.3
					l141.4,85.7C308.2,244.1,313.4,258.6,308.8,271.7z"/>
			</g>
		</g>
		<g>
			<g>
				<path class="st4" d="M307.3,273.4c-0.2-0.2-19.7-17.5-34-30.2c-27.9-24.7-118.8-89.6-119.7-90.2l2.5-3.8l141.4,85.7
					c12.7,7.7,18.4,23.5,13.5,37.5l-1.1,3.2L307.3,273.4z M276.3,239.8c11.1,9.9,25.4,22.5,31.3,27.8c2.3-11.1-2.6-22.8-12.5-28.7
					L201.2,182C228.8,202.1,261.4,226.6,276.3,239.8z"/>
			</g>
		</g>
		<g>
			<g>
				<path class="st0" d="M182.2,337.4c-10.7,4.8-30.9-0.1-22.3-26.8c0,0-19.2-6.2-33.7-17.1c-7.2-5.4-13.3-12-15.3-19.6l55.4-55.4
					c0,0,5.8,27.6,12.3,42.7c3.7,8.6,10,17.1,15.8,22.9c1.6,1.6,3.1,3,4.5,4.1C208.9,296.2,196.8,330.9,182.2,337.4z"/>
			</g>
		</g>
		<g class="st2">
			<g>
				<path class="st4" d="M188.1,333.2c-1.9,1.8-3.8,3.3-5.8,4.1c-10.7,4.8-30.9-0.1-22.3-26.8c0,0-19.2-6.2-33.7-17.1l0,0
					c-1.4-1.1-2.8-2.2-4.2-3.4c-0.2-0.2-0.5-0.4-0.7-0.7c-1.9-1.7-3.6-3.6-5.2-5.5c-0.1-0.2-0.2-0.3-0.4-0.5c-0.5-0.7-1-1.4-1.5-2.1
					c-0.1-0.2-0.3-0.4-0.4-0.6c-0.3-0.4-0.5-0.9-0.8-1.3c-0.1-0.2-0.2-0.4-0.3-0.6c-0.2-0.5-0.5-0.9-0.7-1.4
					c-0.1-0.2-0.2-0.4-0.3-0.6s-0.2-0.5-0.3-0.7s-0.2-0.5-0.2-0.7c-0.1-0.2-0.1-0.3-0.2-0.5c0-0.1-0.1-0.2-0.1-0.4
					c-0.1-0.2-0.1-0.4-0.2-0.5l55.4-55.4l0,0l0,0v0.1c0.1,0.3,0.2,0.9,0.4,1.9c1.5,6.7,6.4,28,11.8,40.7c3.7,8.6,10,17.1,15.8,22.9
					c-9,7-20.1,11.8-32.2,13.5c-4.4,0.6-4.7,6.8-0.5,7.9c9.6,2.6,16.8,2.9,16.8,2.9C160.7,328.7,177.2,336.8,188.1,333.2z"/>
			</g>
		</g>
		<g>
			<g>
				<path class="st4" d="M169.9,340.8c4.6,0.9,9.5,0.3,13.2-1.4c10.6-4.7,19.5-22.4,21.3-36.1c1-8.1-0.4-14-4.2-17
					c-6.1-4.9-14.9-15.2-19.6-26.1c-6.4-14.7-12.1-42-12.1-42.3c-0.3-1.2-1.5-2-2.7-1.8c-1.2,0.3-2,1.5-1.8,2.7
					c0.2,1.1,5.9,28,12.4,43.2c5,11.6,14.3,22.5,20.9,27.8c2.4,2,3.4,6.6,2.5,12.9c-1.6,12.1-9.6,28.5-18.6,32.5
					c-4.8,2.1-12.3,2.1-17-2c-4.7-4.3-5.5-11.9-2.2-22l0.7-2.2l-2.2-0.7c-0.4-0.1-41.9-13.8-47.5-35.1c-0.3-1.2-1.6-1.9-2.8-1.6
					s-1.9,1.6-1.6,2.8c5.5,21,39.4,34.3,48.4,37.5c-3.8,13.7,0.1,20.9,4.2,24.6C163.8,338.9,166.8,340.2,169.9,340.8z"/>
			</g>
		</g>
		<g>
			<g>
				<path class="st4" d="M145.5,306.6c0.1,0,0.2,0,0.3,0c12.9,0.1,39.6-4.6,48.7-23.2c0.4-0.8,0.1-1.9-0.8-2.3
					c-0.8-0.4-1.9-0.1-2.3,0.8c-7.7,15.8-31.5,21.4-45.6,21.3c-0.9,0-1.7,0.8-1.7,1.7C144.1,305.7,144.7,306.4,145.5,306.6z"/>
			</g>
		</g>
		<g>
			<g>
				<path class="st4" d="M159.3,312.7c1.2,0.3,2.2,0.5,3.3,0.6c0.5,0.1,1.1,0.1,1.6,0.1s1.1,0,1.6,0c2.2,0,4.3-0.4,6.4-0.9
					c2.1-0.6,4.2-1.4,6-2.6c1.9-1.2,3.5-2.7,4.7-4.4c0.1-0.2,0.1-0.4-0.1-0.5c-0.1-0.1-0.3-0.1-0.4,0l0,0c-1.8,1.1-3.5,1.9-5.3,2.4
					c-1.9,0.5-3.7,0.8-5.6,1c-1.9,0.1-3.8,0.1-5.7,0c-1,0-1.9-0.1-2.9-0.1c-0.9,0-1.9-0.1-2.8-0.1h-0.2c-1.3,0-2.3,1-2.4,2.2
					C157.7,311.5,158.4,312.4,159.3,312.7z"/>
			</g>
		</g>
		<g>
			<g>
				<path class="st0" d="M79.2,242.3c-5.4,2.8-10.6,4.9-14.5,5.8c-32.6,7.6-42.7-22.3-37-35.4c7.6-17.7,24.5-6.3,24.5-6.3
					c6.9,0.6,13.3-1.6,18.4-7.7c6.3-7.5,10.7-20.8,11.6-41.9c0.2-3.5,0.2-7.1,0.2-11l4.1,9.5l21.3,49
					C112.2,219.4,94.7,234.2,79.2,242.3z"/>
			</g>
		</g>
		<g class="st2">
			<g>
				<path class="st4" d="M108.2,212.6c-0.1,0.3-0.1,0.5-0.2,0.8v0.1c-0.1,0.2-0.1,0.5-0.2,0.7v0.1c-0.1,0.2-0.1,0.5-0.2,0.7
					c-0.1,0.2-0.1,0.4-0.2,0.6c0,0.1-0.1,0.2-0.1,0.3c-0.3,0.7-0.6,1.5-1,2.2c-0.1,0.3-0.3,0.5-0.4,0.8l0,0
					c-0.1,0.2-0.2,0.5-0.4,0.7l-0.1,0.1c-0.1,0.2-0.3,0.5-0.4,0.7c-0.2,0.3-0.3,0.5-0.5,0.8c-0.1,0.1-0.2,0.2-0.2,0.4
					c-0.2,0.3-0.3,0.5-0.5,0.8c0,0,0,0.1-0.1,0.1c-0.1,0.2-0.2,0.3-0.3,0.5c-0.2,0.3-0.4,0.5-0.6,0.8c-0.1,0.2-0.2,0.3-0.4,0.5
					c-0.4,0.5-0.8,1-1.3,1.6c-0.2,0.2-0.4,0.4-0.6,0.6c-1.2,1.4-2.6,2.7-4,4c-0.2,0.2-0.3,0.3-0.5,0.5s-0.3,0.3-0.5,0.5
					c-0.4,0.3-0.7,0.6-1.1,0.9c-0.3,0.3-0.7,0.6-1,0.9c-0.9,0.8-1.9,1.5-2.9,2.2c-0.2,0.1-0.4,0.3-0.6,0.4c-2.2,1.6-4.4,3-6.7,4.3
					c-0.3,0.2-0.6,0.3-0.9,0.5c-0.1,0-0.1,0.1-0.2,0.1c-0.4,0.2-0.8,0.5-1.2,0.7c-0.6,0.3-1.2,0.6-1.8,1c-5.4,2.8-10.6,4.9-14.5,5.8
					c-26.7,6.2-38.3-12.7-38.5-26.9c4.2,11.5,15.9,21.9,36.6,17.1h0.1c7.3-1.7,11.8-9,10.4-16.3c-1.6-8-2.4-15.8-2.7-23.2
					c6.3-7.5,10.7-20.8,11.6-41.9l4.3-1.6l20,45.9l1.3,3.1C108.7,207.1,108.8,209.8,108.2,212.6z"/>
			</g>
		</g>
		<g>
			<g>
				<path class="st4" d="M47.9,250.9c5.2,1,11.1,0.9,17.3-0.6c11.8-2.7,33.5-14.6,42-29c3.6-6,4.5-12,2.9-17.6
					c-0.3-1.2-1.6-1.9-2.8-1.6c-1.2,0.3-1.9,1.6-1.6,2.8c1.3,4.4,0.4,9.1-2.5,14c-7.5,12.8-27.8,24.3-39.1,26.9
					c-15.9,3.7-24.8-2.1-29.4-7.6c-6.5-7.7-7.6-18.6-5-24.6c1.9-4.4,4.5-7.1,7.8-8.1c6.3-1.9,13.3,2.7,13.3,2.8l0.5,0.3l0.6,0.1
					c6.9,0.6,13-1.4,18-5.9c10-9.2,15-28.4,14.8-56.9c0-1.3-1-2.3-2.3-2.3s-2.3,1-2.3,2.3c0.2,26.8-4.4,45.3-13.3,53.5
					c-3.9,3.6-8.5,5.2-13.9,4.8c-2-1.2-9.4-5.2-16.6-3.1c-4.7,1.4-8.3,5-10.8,10.7c-3.1,7.2-2.1,19.9,5.7,29.4
					C35.6,246.3,41.3,249.6,47.9,250.9z"/>
			</g>
		</g>
		<g>
			<g>
				<path class="st0" d="M171.3,291.1c-17.4,4.2-37.4,1.9-56.1-9.7c-33.3-20.6-39.7-61.2-39.7-89.5c0-17.8,2.6-30.7,2.6-30.7
					l89.9-33.1c1.4,15.4,5.3,26.6,10.4,35.6c9.7,17.3,23.7,26.6,32.5,42.2c3.1,5.5,5.6,11.7,7,19.3c0.1,0.3,0.1,0.6,0.2,0.8
					c0.4,2.5,0.7,5,0.8,7.4C220.2,261.6,199,284.5,171.3,291.1z"/>
			</g>
		</g>
		<g class="st2">
			<g>
				<path class="st4" d="M115.3,281.4c-24-14.8-34-40-37.7-63.4c4.7,20.9,15,42.1,36.2,55.2c49.7,30.7,109.2-4.2,103.4-52.1
					c0.4,1.6,0.8,3.3,1.1,5.1C227,275.7,166.1,312.8,115.3,281.4z"/>
			</g>
		</g>
		<g>
			<g>
				<path class="st4" d="M114.1,283.4c-22.8-14.1-36.7-39.8-40-74.4c-2.5-25.9,1.7-47.3,1.8-48.2l0.2-1.3l93.9-34.6l0.3,3
					c2.7,29.9,15,43.5,26.9,56.6c10.1,11.2,19.7,21.8,23.2,41.2c4,22.4-5.5,43.9-25.4,57.4c-11.1,7.5-24.2,11.7-38,12.1
					c-5.6,0.2-11.1-0.3-16.6-1.4C131.3,292.1,122.4,288.5,114.1,283.4z M80.2,163c-0.8,4.9-3.7,23.9-1.5,45.7
					c2.2,23,10.6,54,37.8,70.8c29.3,18.1,58.5,11.8,76-0.1c18.4-12.5,27.1-32.2,23.5-52.8c-3.2-18.1-12.4-28.2-22.1-38.9
					c-12-13.3-24.4-27-27.7-56.3L80.2,163z"/>
			</g>
		</g>
		<g class="st2">
			<g>
				<path class="st4" d="M178.4,163.8c-23.1,30.9-66.9,43.8-102.9,28.2c0-17.8,2.6-30.7,2.6-30.7l89.9-33.1
					C169.5,143.6,173.4,154.8,178.4,163.8z"/>
			</g>
		</g>
		<g class="st2">
			<g>
				<path class="st3" d="M162.4,161.2c-11.7-3.2-17.1-19.4-11.5-35.3c3.7,18.6,27.7-5.6,30.7-13.4
					C210.2,126.8,183.6,167.5,162.4,161.2z"/>
			</g>
		</g>
		<g class="st5">
			<g>
				<path class="st0" d="M146.4,109.3c-7.9,14.9-25,6.2-20.3-7.8C132.9,84.1,153.2,94.1,146.4,109.3z"/>
			</g>
		</g>
		<g>
			<g>
				<g>
					<path class="st0" d="M12,125.9C55.9,239,215.3,183.7,184.9,70.7C142.7-46.2-21.9,11.2,12,125.9z"/>
				</g>
			</g>
			<g>
				<g>
					<path class="st0" d="M12,125.9C55.9,239,215.3,183.7,184.9,70.7C142.7-46.2-21.9,11.2,12,125.9z"/>
				</g>
			</g>
			<g>
				<g>
					<path class="st0" d="M12,125.9C55.9,239,215.3,183.7,184.9,70.7C142.7-46.2-21.9,11.2,12,125.9z"/>
				</g>
			</g>
			<g>
				<g>
					<path class="st3" d="M60.9,182.4c-22.7-9.9-40.2-29.3-50.5-55.9v-0.1c-8-27.2-5.6-53.1,7-75C28.7,31.9,47.3,17.1,69.8,9.7
						s46.1-6.4,66.5,2.7c23,10.3,40.4,30.3,50.3,57.7v0.1c7.2,26.8,4.3,52.3-8.3,73.7c-11.3,19.1-29.7,33.7-51.8,40.9
						c-15.8,5.2-32.1,6.2-47.6,3.1C72.7,186.8,66.7,184.9,60.9,182.4z M70.9,13C31.2,26-3.7,66.7,13.6,125.3
						c22.1,56.9,72,69.3,111.7,56.3c38.7-12.7,73.4-52.6,57.9-110.3C162.1,12.8,110.2,0.1,70.9,13z M12,125.9L12,125.9L12,125.9z"/>
				</g>
			</g>
			<g class="st2">
				<g>
					<path class="st6" d="M12,125.9c36.2,98.4,174.3,72.6,176.9-28.1c-11.3,30.9-22.5,30.3-42.1,43.7C86.3,186,11.9,133.2,12.5,67.1
						C5.7,86.4,5.8,107.1,12,125.9z"/>
				</g>
			</g>
			<g>
				<g>
					<path class="st4" d="M60.6,183c-22.9-10-40.5-29.5-50.9-56.3l-0.1-0.2C1.6,99.2,4,73.1,16.8,51C28.2,31.3,46.9,16.4,69.6,9
						c22.6-7.4,46.4-6.4,67,2.8c23.2,10.4,40.7,30.5,50.7,58.1l0.1,0.2c7.3,27,4.3,52.7-8.4,74.2c-11.4,19.3-30,33.9-52.2,41.2
						c-15.9,5.2-32.4,6.2-47.9,3.1C72.5,187.4,66.4,185.6,60.6,183z M71.1,13.6c-39.4,13-73.9,53.3-56.8,111.5
						c22,56.4,71.5,68.7,110.8,55.8c38.4-12.6,72.8-52.2,57.5-109.4C161.6,13.5,110.1,0.8,71.1,13.6z M12,125.9L12,125.9L12,125.9z"
						/>
				</g>
			</g>
			<g>
				<g>
					<path class="st3" d="M22.1,146.8c77.5,73.2,177.3-14,123.1-90.1C79.4-24.7-33,53.4,22.1,146.8z"/>
				</g>
			</g>
			<g>
				<g>
					<path class="st7" d="M10.7,79.5c-21.7,93.9,110.8,132.2,144.8,49.7C101,170,25.6,130.7,10.7,79.5z"/>
				</g>
			</g>
			<g>
				<g>
					<path class="st4" d="M51.5,177.2c-18.7-9.7-33-27.2-41.4-50.7l0,0c-7-20-6.2-43.6,2.3-64.7c9-22.3,25.4-39.4,46.3-48.2l0.3-0.1
						c23.8-5.5,49.9-0.3,71.7,14.3c21.7,14.6,36.4,36.6,40.3,60.6c3.2,23.2-2.1,44.8-15.2,62.5c-11.9,16.1-29.3,27.6-49,32.4
						c-11.8,2.9-23.9,3.2-35.3,0.9C64.6,182.9,57.8,180.5,51.5,177.2z M60.1,17.5C16.4,36,0.9,88.1,13.9,125.2
						c18.7,52,61.2,61.7,91.9,54.2c35.3-8.6,67.7-42.5,61.1-90.4c-3.7-22.8-17.7-43.9-38.5-57.8c-10.5-7-22-11.8-33.7-14.1
						C83.2,14.8,71.4,14.9,60.1,17.5z M12,125.9L12,125.9L12,125.9z"/>
				</g>
			</g>
			<g>
				<g>
					<path class="st3" d="M20.4,148.6l-0.3-0.2l-0.2-0.3C6.7,125.7,2,102.4,6.5,80.9c4-19.3,15.1-36,31.2-47.2
						c15.8-11,34.9-15.5,53.7-12.7c20.9,3.1,40.2,14.9,55.7,34.2l0.1,0.1c12.6,17.7,17.9,37.3,15.2,56.5
						c-2.4,17.4-11.4,33.6-25.1,45.6c-14.9,13-34,19.9-53.8,19.4c-4.7-0.1-9.3-0.6-13.9-1.5C52.2,171.8,35.4,162.8,20.4,148.6z
						 M40.5,37.6C25.1,48.2,13.1,66.1,10.4,88.1c-5,41.2,24.7,78.5,65.9,83.4c22.3,2.6,42.9-4.9,57.6-17.8
						c23.7-20.6,35.7-58.2,9.2-95.5C110.4,17.6,68,18.6,40.5,37.6z M22.1,146.8L22.1,146.8L22.1,146.8z"/>
				</g>
			</g>
			<g>
				<g>
					<path class="st1" d="M194.3,138.2c-15.1,40.1-56.5,28.4-46-11.3C162.6,84.3,206.9,96.8,194.3,138.2z"/>
				</g>
			</g>
			<g>
				<g>
					<path class="st4" d="M160.1,164.5c-11.1-3.6-19.8-16.8-14.1-38.3v-0.1c3.6-10.6,9.2-18.8,16.4-23.6c6.5-4.3,14-5.6,20.6-3.5
						c11.3,3.6,20.4,17.6,13.6,39.9l-0.1,0.1c-8,21.3-22.9,28.3-34.3,26C161.6,164.9,160.8,164.7,160.1,164.5z M181.5,103.6
						c-10.2-3.3-24.1,3.9-30.8,23.9c-4.8,18.4,2,29.5,10.9,32.3c9.4,3,23-2.7,30.4-22.4C197.8,118.3,190.6,106.5,181.5,103.6z"/>
				</g>
			</g>
			<g>
				<g>
					<path class="st1" d="M195.5,140.8c-12.2,32.5-43.4,24.2-34.9-7.9C172,98,205.9,107,195.5,140.8z"/>
				</g>
			</g>
			<g>
				<g>
					<path class="st4" d="M168.6,163.2c-8.5-2.7-15.1-13.3-10.4-30.9v-0.1c6.4-19.4,19.7-26.3,29.6-23.2c8.8,2.8,15.6,14.2,10,32.6
						v0.1c-6.7,17.8-18.6,23.7-27.5,21.9C169.7,163.5,169.2,163.4,168.6,163.2z M186.3,113.7c-7.6-2.4-18.1,3.7-23.5,20
						c-3.8,14.4,0.9,22.9,7.2,24.9c6.9,2.2,17-2.6,23-18.5C197.8,124.9,192.9,115.7,186.3,113.7z"/>
				</g>
			</g>
			<g class="st8">
				<g>
					<path class="st0" d="M18.8,89.6c2.6-70.3,74.8-64.5,93.1-45.7C66.2,37.7,37.7,48.4,18.8,89.6z"/>
				</g>
			</g>
			<g class="st2">
				<g>
					<path class="st4" d="M157.3,140.2c0.4-4.9,2.1-9.6,4.7-13.8c1.3,23.9,26.2,18.7,34.9,3.5C194.9,164.5,157.5,173.1,157.3,140.2z
						"/>
				</g>
			</g>
		</g>
		<g>
			<g>
				<path class="st4" d="M50.7,208.2c0.1,0.1,0.4,0.4,0.6,0.6c0.2,0.3,0.4,0.5,0.6,0.8s0.4,0.5,0.6,0.8s0.4,0.6,0.6,0.9
					c0.7,1.2,1.3,2.4,1.8,3.7c0.3,0.6,0.4,1.3,0.6,2s0.3,1.4,0.4,2.1c0.1,0.7,0.2,1.4,0.2,2.1c0,0.7,0.1,1.4,0.1,2.1
					c0,0.7,0,1.4-0.1,2.2c-0.1,0.7-0.2,1.4-0.3,2.2c-0.2,1.3-0.6,2.6-1.3,3.8c-1.3,2.4-3.3,4.4-6,6.1l0,0c-0.1,0.1-0.1,0.2-0.1,0.3
					c0,0.1,0.1,0.1,0.2,0.1c3.3,0.1,6.6-1.9,8.6-4.8c1-1.4,1.7-3.1,2.1-4.8c0.2-0.8,0.3-1.6,0.5-2.4c0.1-0.8,0.2-1.6,0.3-2.5
					c0.3-3.3,0-6.7-1.1-10c-0.5-1.6-1.3-3.2-2.1-4.7c-0.2-0.4-0.4-0.7-0.7-1.1c-0.2-0.4-0.5-0.7-0.8-1s-0.6-0.7-0.9-1s-0.6-0.6-1-1
					c-0.9-0.8-2.4-0.7-3.2,0.2c-0.8,0.9-0.7,2.3,0.1,3.1L50.7,208.2z"/>
			</g>
		</g>
		<g>
			<g>
				<path class="st0" d="M46.6,203.8c0,0,10.4,4.8,12.4,16.1c0,0,4.3,0.6,6.1-4.1c2.1-5.4-0.8-14.5-8.7-16.6
					C50.4,197.5,46.6,203.8,46.6,203.8z"/>
			</g>
		</g>
		<g class="st2">
			<g>
				<path class="st4" d="M65.1,215.8c-1.8,4.7-6.1,4.1-6.1,4.1c-2-11.3-12.4-16.1-12.4-16.1s0.8-1.4,2.3-2.7
					c3.1,1.3,8.1,4.2,11.2,9.8c1.2,2.1,4.2,2.3,5.5,0.3c0,0,0,0,0-0.1C65.9,212.8,65.7,214.4,65.1,215.8z"/>
			</g>
		</g>
		<g>
			<g>
				<path class="st4" d="M56.9,220.3c-1.8-9.9-11-14.4-11.2-14.5l-2.2-1l1.3-2.1c0.2-0.3,4.7-7.7,12.3-5.6c4,1.1,7.3,3.8,9.2,7.6
					c2,3.8,2.3,8.4,1,11.9c-1.9,5-6.3,5.8-8.4,5.5l-1.6-0.2L56.9,220.3z M50,203.2c3.2,2.1,8.7,6.7,10.8,14.3c0.8-0.3,1.7-1,2.2-2.5
					c0.9-2.3,0.6-5.6-0.8-8.3s-3.7-4.6-6.4-5.4c-0.1,0-0.3-0.1-0.4-0.1C53.1,200.8,51.2,202,50,203.2z"/>
			</g>
		</g>
		<g>
			<g>
				<path class="st0" d="M195.1,192.2l-43.7,3.9c-10.9-20.8-20.2-65.2-20.2-65.2s-4.8-1.1-9.8-4.7c-3.7-2.7-7.5-6.7-9.5-12.5
					c-0.6-1.9-1.1-3.9-1.3-6.2c-1.9-22.2,25.8-33,45.5-22.7C187,101,174.2,147.9,195.1,192.2z"/>
			</g>
		</g>
		<g class="st2">
			<g>
				<path class="st4" d="M143.8,126.8c-6.6,1.6-15.4,0.7-22.5-0.6c-3.7-2.7-7.5-6.7-9.5-12.5c11.4,2.9,40.7,8.5,47.5-6.5
					C159.3,107.2,163.9,122,143.8,126.8z"/>
			</g>
		</g>
		<g>
			<g>
				<path class="st4" d="M195.7,191.9c-0.5-2.2-1.1-4.3-1.7-6.4c-0.6-2.1-1.2-4.2-1.8-6.3c-1.2-4.2-2.4-8.4-3.5-12.6
					c-1.1-4.2-2.1-8.5-2.9-12.8c-0.8-4.3-1.5-8.7-2.2-13c-1.4-8.7-2.6-17.5-4.8-26.3c-1.1-4.4-2.5-8.7-4.4-12.9
					c-1.9-4.2-4.5-8.2-7.8-11.6l-1.2-1.3c-0.4-0.4-0.9-0.8-1.3-1.2l-1.4-1.1c-0.5-0.3-1-0.7-1.4-1c-0.5-0.3-1-0.7-1.5-1l-1.5-0.9
					c-0.5-0.3-1-0.6-1.5-0.9l-1.6-0.8c-4.3-1.9-9-3-13.7-3.2s-9.4,0.4-13.9,1.9s-8.7,3.9-12.2,7.3c-1.7,1.7-3.2,3.6-4.4,5.8
					c-1.2,2.1-2,4.5-2.5,6.9s-0.6,4.8-0.4,7.2c0.2,2.4,0.7,4.7,1.5,7c1.6,4.6,4.5,8.7,8.2,11.7c1.8,1.5,3.8,2.9,5.9,4
					c1,0.5,2.1,1,3.2,1.5c0.5,0.2,1.1,0.4,1.7,0.6c0.6,0.2,1.1,0.4,1.8,0.5l-1.7-1.8c1.2,5.6,2.5,11.2,3.9,16.7
					c1.4,5.6,2.9,11.1,4.5,16.6c0.8,2.8,1.7,5.5,2.5,8.2c0.9,2.7,1.7,5.5,2.6,8.2c0.2,0.7,0.5,1.4,0.7,2c0.3,0.7,0.5,1.3,0.8,2
					s0.6,1.3,0.9,2l0.4,1l0.5,1c0.7,1.3,1.4,2.6,2.2,3.8c0.9,1.2,1.7,2.4,2.7,3.5c0.3,0.3,0.8,0.3,1.1,0c0.2-0.2,0.3-0.5,0.2-0.7
					l0,0c-1.1-5.7-3.1-10.9-5-16.2c-0.5-1.3-1-2.6-1.5-4c-0.5-1.3-0.9-2.7-1.4-4c-0.8-2.7-1.7-5.4-2.5-8.1
					c-1.6-5.4-3.1-10.9-4.4-16.4c-1.4-5.5-2.7-11-3.9-16.6V129l-1.4-0.4c-0.4-0.1-0.9-0.3-1.4-0.4c-0.5-0.2-1-0.3-1.4-0.5
					c-1-0.4-1.9-0.8-2.8-1.3c-1.8-1-3.5-2.1-5.1-3.4c-3.1-2.6-5.5-6-6.8-9.8c-0.7-1.9-1.1-3.9-1.2-5.9c-0.2-2-0.1-4,0.3-6
					c0.4-1.9,1-3.8,2-5.6c1-1.7,2.2-3.3,3.6-4.7c2.9-2.8,6.5-4.9,10.4-6.2c3.9-1.3,8.1-1.9,12.2-1.7c4.1,0.2,8.2,1.2,12,2.8l1.4,0.7
					c0.5,0.2,0.9,0.5,1.4,0.8l1.3,0.8c0.4,0.3,0.8,0.6,1.3,0.9l1.3,0.9l1.2,1c0.4,0.3,0.8,0.6,1.2,1l1.1,1.1c2.9,3,5.2,6.5,6.9,10.3
					c1.8,3.8,3.1,7.9,4.1,12.1c2.1,8.4,3.3,17.1,4.7,25.9c1.4,8.7,2.8,17.6,4.8,26.3c1.1,4.4,2.4,8.7,4,12.9
					c0.9,2.1,1.7,4.2,2.8,6.1c1,2,2.2,3.9,3.6,5.8c0.2,0.3,0.7,0.4,1.1,0.2C195.7,192.6,195.8,192.3,195.7,191.9L195.7,191.9z"/>
			</g>
		</g>
		<g>
			<g>
				<path class="st4" d="M160,102.1c-1.2,1.3-1.9,2.4-2.5,3.5c-0.7,1.1-1.4,2.3-2.3,3.5c-0.9,1.1-2,2.1-3.1,3.1
					c-0.1,0.1-0.3,0.2-0.4,0.3c-0.1,0.1-0.2,0.2-0.3,0.2c-0.1,0.1-0.3,0.1-0.4,0.2c-0.1,0.1-0.3,0.1-0.4,0.2c-0.6,0.3-1.3,0.5-2,0.7
					c-2.8,0.8-5.9,1.1-8.9,1.1c-3.1,0-6.1-0.2-9.1-0.7s-5.9-1.3-8.6-2.6c-2.6-1.2-5-3-6.3-5.2c-0.7-1.1-1-2.3-1.2-3.6
					c-0.1-1.3,0-2.6,0.4-4c0.2-0.7,0.4-1.3,0.7-2s0.7-1.3,1-1.9c0.4-0.6,0.7-1.3,0.9-2c0.2-0.8,0.3-1.6,0-2.7l0,0
					c-0.1-0.6-0.7-0.9-1.2-0.8c-1.2,0.2-2,0.7-2.6,1.3c-0.6,0.6-1.1,1.3-1.5,2.1c-0.4,0.8-0.6,1.6-1,2.5c-0.3,0.8-0.6,1.7-0.8,2.5
					c-0.5,1.8-0.7,3.6-0.5,5.5c0.2,1.9,0.8,3.8,1.8,5.5s2.3,3.1,3.7,4.2c1.4,1.1,3,2.1,4.5,2.8c3.2,1.5,6.5,2.4,9.8,3
					s6.7,0.8,10,0.8c3.4-0.1,6.7-0.4,10.1-1.3c0.9-0.2,1.7-0.5,2.6-0.9c0.2-0.1,0.4-0.2,0.6-0.3c0.2-0.1,0.4-0.2,0.7-0.4
					c0.4-0.2,0.9-0.6,1.2-0.9c1.4-1.1,2.6-2.3,3.9-3.5c1.2-1.3,2.4-2.8,3-4.5c0.7-1.7,1-3.8-0.2-5.7c-0.2-0.4-0.7-0.5-1.1-0.3
					c-0.1,0-0.1,0.1-0.2,0.1L160,102.1z"/>
			</g>
		</g>
		<g>
			<g>
				<path class="st0" d="M110.7,102.4c0,0,17.5,2,19.2,7.8c2.1,7-4.2,9.1-9.9,9.2c-5.5,0.1-9.5-0.1-11.4-4.8
					C106.1,108.3,110.7,102.4,110.7,102.4z"/>
			</g>
		</g>
		<g class="st2">
			<g>
				<path class="st3" d="M120,119.4c-5.5,0-9.5-0.1-11.4-4.8c-1.4-3.5-0.6-6.9,0.4-9.2c0,1.1,0.3,2.3,0.7,3.5
					c1.9,4.7,5.9,4.8,11.4,4.8c3.4,0,7-0.8,8.9-2.9C131.6,117.3,125.6,119.3,120,119.4z"/>
			</g>
		</g>
		<g>
			<g>
				<path class="st4" d="M106.5,115.4c-3-7.5,2.2-14.1,2.4-14.4l0.8-1l1.2,0.1c3.2,0.4,19,2.5,21.1,9.3c1.1,3.8,0.1,6.4-1,7.8
					c-2.7,3.6-8.1,4.2-11,4.2c-2.1,0-4.3,0-6.4-0.4C110.7,120.7,108,119.2,106.5,115.4z M111.8,104.8c-1,1.7-2.6,5.3-1.1,9
					c1.2,3,3.3,3.4,9.3,3.4c3.6,0,6.4-0.9,7.5-2.4c0.7-0.9,0.8-2.2,0.3-3.9c-0.6-2.1-6.3-4.2-12.5-5.4
					C114.1,105.2,112.9,105,111.8,104.8z"/>
			</g>
		</g>
		<g>
			<g>
				<path class="st0" d="M215.8,226.1c0,0,10.7,26.2,19.9,39.9c6.7,10,17.4,18.9,24.9,22.9c11.3,6.2,5.8,42.4-7.3,51.4
					c-9.6,6.6-30.4,5.4-26.8-22.4c0,0-47-8.9-57.1-30.2l0,0c-2.7-4.6-2.1-10.4,1.6-14.2L215.8,226.1z"/>
			</g>
		</g>
		<g class="st2">
			<g>
				<path class="st4" d="M261.1,330.4c-2.1,4.3-4.7,7.9-7.8,10c-9.6,6.6-30.4,5.4-26.8-22.4c0,0-47-8.9-57.1-30.2
					c-1.5-2.6-2-5.6-1.4-8.4c0,0,0,0,0-0.1c0.7-3.3,5-4.2,7-1.5c0.3,0.4,0.5,0.7,0.7,1.1c20.5,34.6,69.8,29.8,69.8,29.8
					c-21,23.9,6.4,33.3,14.2,22.8C260,331,260.6,330.8,261.1,330.4z"/>
			</g>
		</g>
		<g>
			<g>
				<path class="st4" d="M238.3,345.6c5.8,1.2,12.1-0.5,16.3-3.3c9.4-6.5,15-25.4,14.3-39.1c-0.4-8.2-2.9-13.8-7.3-16.2
					c-6.9-3.8-17.4-12.3-24.1-22.2c-8.9-13.3-17.2-38.7-17.3-39c-0.4-1.2-1.7-1.9-2.9-1.5s-1.9,1.7-1.5,2.9
					c0.3,1.1,8.6,26.3,17.8,40.1c7,10.5,18.2,19.6,25.7,23.7c2.8,1.5,4.6,6,4.9,12.4c0.6,12.2-4.3,29.6-12.3,35.1
					c-4.4,3-11.6,4.3-17,1c-5.5-3.3-7.6-10.7-6.3-21.3l0.3-2.1l-2.1-0.4c-0.5-0.1-46-8.9-55.5-29l-0.1-0.3c0,0-1.4-2.2-1.3-4.8
					c0-1.3-1-2.3-2.2-2.3c-1.3,0-2.3,1-2.3,2.2c-0.1,3.6,1.5,6.5,1.9,7.2c9.5,19.7,47.2,28.9,56.7,30.9c-1.3,14.3,3.9,20.7,8.7,23.6
					C234.4,344.5,236.3,345.2,238.3,345.6z"/>
			</g>
		</g>
		<g>
			<g>
				<path class="st4" d="M134.9,150c0.1,0,0.1,0,0.2,0c1.6,0.2,40.3,4.1,47.4-12.3c0.4-0.9,0-1.9-0.9-2.3c-0.9-0.4-1.9,0-2.3,0.9
					c-5,11.7-33.4,11.4-43.8,10.3c-0.9-0.1-1.8,0.6-1.9,1.5C133.4,149,134,149.8,134.9,150z"/>
			</g>
		</g>
		<g>
			<g>
				<path class="st4" d="M211.3,315.8c0.1,0,0.2,0,0.3,0c0.3,0,7.6,0.3,15.9-4.2c7.5-4.1,17.3-13.1,20.9-32.9c0.2-0.9-0.4-1.8-1.4-2
					c-0.9-0.2-1.8,0.4-2,1.4c-2.7,14.7-9.1,24.9-19,30.4c-7.4,4.1-14.2,3.9-14.2,3.9c-0.9,0-1.7,0.7-1.8,1.6
					C209.9,315,210.5,315.7,211.3,315.8z"/>
			</g>
		</g>
		<g>
			<g>
				<path class="st4" d="M226.1,319.8c0.6,0.2,1.1,0.3,1.6,0.3c0.5,0.1,1,0.1,1.5,0.1s1,0,1.5,0s1-0.1,1.5-0.2c2-0.3,4-1,5.8-2
					s3.4-2.3,4.6-3.9c0.7-0.7,1.2-1.6,1.7-2.4c0.3-0.4,0.4-0.9,0.6-1.3s0.4-0.9,0.6-1.3c0.1-0.1,0-0.3-0.1-0.4c-0.1,0-0.2,0-0.3,0.1
					l0,0c-0.7,0.7-1.3,1.4-1.9,2c-0.7,0.6-1.3,1.2-2.1,1.7c-1.4,1.1-2.9,1.8-4.5,2.4s-3.2,0.9-4.8,1.1c-0.4,0-0.8,0.1-1.2,0.1
					s-0.8,0-1.2,0s-0.8,0-1.2,0h-1.1h-0.3c-1.1,0-1.9,0.8-2,1.8C224.7,318.8,225.2,319.6,226.1,319.8z"/>
			</g>
		</g>
		<g>
			<g>
				<path class="st1" d="M75.5,223.1l3.9-3.7c1.9-1.8,4.3-3,6.8-3.4l42.9-6.6c0.7-0.1,0.8,8.8,0.9,9.5l-6.1,9.7L75.5,223.1z"/>
			</g>
		</g>
		<g>
			<g>
				<path class="st4" d="M74.7,223.3c-0.3-0.8-0.1-1.7,0.6-2.3l3-2.8c2.1-2,4.8-3.3,7.7-3.8l42.9-6.6c0.5-0.1,1,0.1,1.3,0.4
					c0.8,0.6,1.1,1.5,1.3,8.9c0,0.7,0.1,1.4,0.1,1.5l0.1,0.6l-6.9,11l-48.2-5.5c-0.1,0-0.1,0-0.2,0
					C75.6,224.6,74.9,224.1,74.7,223.3z M77.4,223.4C77.5,223.4,77.5,223.4,77.4,223.4L77.4,223.4z M128.4,218.5
					c0-0.3,0-0.7-0.1-1.2c-0.1-1.3-0.2-4.4-0.4-6.1l-41.5,6.4c-2.3,0.3-4.3,1.4-6,2.9l-1.4,1.3l44.1,5L128.4,218.5z"/>
			</g>
		</g>
		<g>
			<g>
				<path class="st1" d="M147.8,266c-7.4,3.5-19.1,8.9-19.3,8.4l-5.8-17.7L110,217.6c-0.1-0.3,12.3-6,19.1-8.2
					c2.9-0.9,5,3.1,6.2,6.1l8.6,22.2l7.4,19C152.6,260.4,151.1,264.5,147.8,266z"/>
			</g>
		</g>
		<g class="st2">
			<g>
				<path class="st4" d="M147.8,266c-7.4,3.5-19.1,8.9-19.3,8.4l-5.8-17.7l-0.9-21.5c0,0,8.8,8.8,17.8,5c1.6-0.7,3-1.6,4.2-2.5
					l7.4,19C152.6,260.4,151.1,264.5,147.8,266z"/>
			</g>
		</g>
		<g>
			<g>
				<path class="st4" d="M127.9,276l-0.7-0.3L127,275l-18.6-56.9c-0.4-1.4,0.6-1.9,2.8-3c1.3-0.7,3.1-1.5,5-2.3
					c2.3-1,8.1-3.5,12.3-4.9c1.8-0.6,5.3-0.5,8.2,7.1l15.9,41.2c1.7,4.4-0.1,9.4-4.2,11.3c-17.1,8-19.4,8.8-20.3,8.6
					C128.1,276,128,276,127.9,276z M128.5,274.5L128.5,274.5L128.5,274.5z M129.6,210.9c-5.7,1.9-14.7,6-17.7,7.5l17.7,54.2
					c1.8-0.7,6.4-2.7,17.6-7.9c2.6-1.2,3.7-4.4,2.6-7.3l-16-41.2c-1.2-3.1-2.6-5-3.7-5.2C129.9,210.8,129.7,210.8,129.6,210.9z"/>
			</g>
		</g>
		<g>
			<g>
				<path class="st1" d="M128,274.7l-33.5-1.6c-5.1-1-8.7-2.5-10.7-7.8l-1-2.7l-10.3-27.2c-0.7-1.8-1-3.7-1-5.4
					c0.1-4.1,3.3-6.2,7.4-7.8l29.2-4.5c4.7-0.7,9.2,1.8,11,6.2l1.9,5.2l13.6,36.7C136.2,270.2,132.8,274.9,128,274.7z"/>
			</g>
		</g>
		<g class="st2">
			<g>
				<path class="st4" d="M128,274.5l-33.5-1.6c-5.1-1-8.7-2.5-10.7-7.8l-1-2.7c7,2.3,18.4,4,28.1-3.6c9.2-7.3,10.6-20.6,10.2-30
					l13.6,36.7C136.3,269.9,132.8,274.7,128,274.5z"/>
			</g>
		</g>
		<g>
			<g>
				<path class="st4" d="M82.3,265.6L71,235.8c-0.7-2-1.1-4-1.1-6c0.1-5.4,4.6-7.8,8.4-9.3l0.2-0.1l29.3-4.6
					c5.4-0.8,10.6,2.1,12.8,7.2l15.5,41.8c1,2.6,0.6,5.5-1.1,7.8c-1.6,2.3-4.3,3.5-7.1,3.4l-33.5-1.6h-0.2h-0.1
					C89.5,273.5,84.7,272,82.3,265.6z M108.4,219l-29,4.5c-4.4,1.7-6.2,3.5-6.2,6.3c0,1.6,0.3,3.2,0.9,4.8l11.3,29.9
					c1.7,4.5,4.5,5.8,9.4,6.8l33.4,1.6c1.7,0.1,3.3-0.7,4.4-2.1c1-1.4,1.3-3.2,0.7-4.8l-15.5-41.8c-1.1-2.7-3.5-4.6-6.3-5.2
					C110.4,218.8,109.4,218.8,108.4,219z"/>
			</g>
		</g>
		<g>
			<g>
				<g>
					<path class="st1" d="M205.1,197c0,0-22.8,24.4-58.4,30.9c-5.6,1-9.6,6-8.8,11.6c0.4,2.9,2,5.5,6.4,6.4
						c18.2,3.6,68.1-21.9,71.1-35.3C218.3,198.1,205.1,197,205.1,197z"/>
				</g>
			</g>
			<g class="st2">
				<g>
					<path class="st4" d="M215.4,210.6c-3.1,13.4-53,38.9-71.1,35.3c-4.4-0.9-6-3.5-6.4-6.4s0.5-5.6,2.2-7.7v0.1
						c0.4,2.9,2,5.5,6.4,6.4c16.6,3.3,59.6-17.7,69.3-31.5C215.9,207.9,215.8,209.2,215.4,210.6z"/>
				</g>
			</g>
			<g>
				<g>
					<path class="st4" d="M135.7,239.7c-0.9-6.6,3.8-12.8,10.6-14.1c34.4-6.3,57-30,57.2-30.2l0.7-0.8l1.1,0.1c0.3,0,7,0.6,10.6,5.5
						c2.1,2.9,2.7,6.5,1.7,10.8c-1.9,8.2-17.3,18.6-31.1,25.5c-13.7,6.9-32.2,13.5-42.7,11.5l0,0
						C139.2,247.1,136.3,244.2,135.7,239.7z M147.1,230.1c-4.5,0.8-7.6,4.8-7,9.1c0.3,2.5,1.7,3.9,4.6,4.5l0,0
						c17.7,3.5,65.9-22.1,68.5-33.6c0.7-2.9,0.4-5.3-0.9-7.1c-1.7-2.4-4.8-3.3-6.4-3.6C201.4,203.9,179.7,224.1,147.1,230.1z"/>
				</g>
			</g>
		</g>
		<g>
			<g>
				<g>
					<path class="st1" d="M88,244.9c3.3-0.5,6.4,1.8,6.9,5.1c0.5,3.3-1.8,6.4-5.1,6.9l-11.6,2.8l-4.4-11.9L88,244.9z"/>
					<path class="st4" d="M76.5,260.3l-4.4-11.9c-0.2-0.5-0.1-1,0.1-1.5c0.3-0.5,0.7-0.8,1.2-0.9l14.3-2.9h0.1
						c4.3-0.6,8.3,2.3,8.9,6.6c0.6,4.3-2.3,8.2-6.5,8.9l-11.6,2.8c-0.3,0.1-0.5,0.1-0.8,0C77.2,261.3,76.7,260.9,76.5,260.3z
						 M88.3,246.6l-12.2,2.5l3.1,8.5l10.1-2.4c0.1,0,0.1,0,0.2,0c2.3-0.3,4-2.5,3.6-4.9c-0.3-1.8-1.7-3.2-3.4-3.6
						C89.3,246.6,88.8,246.6,88.3,246.6z"/>
				</g>
				<g>
					<g>
						<g>
							
								<ellipse transform="matrix(0.954 -0.2997 0.2997 0.954 -71.0833 38.2437)" class="st4" cx="89.1" cy="250.8" rx="1.9" ry="2.9"/>
						</g>
						<g>
							<path class="st4" d="M86.8,251.6L86.8,251.6c-0.5-1.8,0-3.5,1.3-3.9c0.7-0.2,1.4,0,2,0.6c0.6,0.5,1,1.2,1.3,2.1
								c0.5,1.8,0,3.5-1.3,3.9c-0.3,0.1-0.6,0.1-0.9,0C88.2,254,87.2,253,86.8,251.6z M88.4,248.6c-0.7,0.2-1,1.4-0.7,2.7l0,0
								c0.4,1.3,1.3,2.2,2.1,1.9c0.7-0.2,1-1.4,0.7-2.7c-0.2-0.6-0.5-1.2-1-1.6c-0.1-0.1-0.4-0.3-0.7-0.4
								C88.6,248.6,88.5,248.6,88.4,248.6z M87.2,251.4L87.2,251.4L87.2,251.4z"/>
						</g>
					</g>
				</g>
			</g>
			<g>
				<path class="st4" d="M123.1,253.1c0.5-0.2,1,0.1,1.1,0.5l1.8,5.3c0.2,0.5-0.1,1-0.5,1.1c-0.2,0.1-0.3,0.1-0.5,0
					c-0.3-0.1-0.6-0.3-0.7-0.6l-1.8-5.3C122.3,253.8,122.6,253.3,123.1,253.1z"/>
				<path class="st4" d="M117.5,238.2c-0.2,0.1-0.3,0.1-0.5,0c-0.3-0.1-0.6-0.3-0.7-0.6l-1.8-5.3c-0.2-0.5,0.1-1,0.5-1.1
					c0.5-0.2,1,0.1,1.1,0.5l1.8,5.3C118.2,237.5,117.9,238,117.5,238.2z"/>
				<path class="st4" d="M119.2,242.2c0.5-0.2,1,0.1,1.1,0.5l1.8,5.3c0.2,0.5-0.1,1-0.5,1.1c-0.2,0.1-0.3,0.1-0.5,0
					c-0.3-0.1-0.6-0.3-0.7-0.6l-1.8-5.3C118.5,242.9,118.8,242.4,119.2,242.2z"/>
				<path class="st4" d="M99.8,225.8c-0.4-0.1-0.6-0.4-0.7-0.7c-0.1-0.5,0.3-0.9,0.7-1l4.4-0.7c0.5-0.1,0.9,0.3,1,0.7
					c0.1,0.5-0.3,0.9-0.7,1l-4.4,0.7C100,225.8,99.9,225.8,99.8,225.8z"/>
				<path class="st4" d="M91.7,225.3l4.4-0.7c0.5-0.1,0.9,0.3,1,0.7c0.1,0.5-0.3,0.9-0.7,1L92,227c-0.1,0-0.2,0-0.3,0
					c-0.4-0.1-0.6-0.4-0.7-0.7C90.9,225.9,91.2,225.4,91.7,225.3z"/>
				<path class="st4" d="M83.3,228.3c-0.4-0.1-0.6-0.4-0.7-0.7c-0.1-0.5,0.3-0.9,0.7-1l4.4-0.7c0.5-0.1,0.9,0.3,1,0.7
					c0.1,0.5-0.3,0.9-0.7,1l-4.4,0.7C83.5,228.3,83.4,228.3,83.3,228.3z"/>
				<path class="st4" d="M115.3,267.5l4.3,0.2c0.5,0,0.9,0.4,0.9,0.9s-0.4,0.9-0.9,0.9l-4.3-0.2h-0.1c-0.4-0.1-0.7-0.5-0.7-0.9
					C114.4,267.9,114.8,267.5,115.3,267.5z"/>
				<path class="st4" d="M106.8,267.4l4.3,0.2c0.5,0,0.9,0.4,0.9,0.9s-0.4,0.9-0.9,0.9l-4.3-0.2h-0.1c-0.4-0.1-0.7-0.5-0.7-0.9
					C105.9,267.8,106.3,267.4,106.8,267.4z"/>
				<path class="st4" d="M98.8,267.1l4.3,0.2c0.5,0,0.9,0.4,0.9,0.9s-0.4,0.9-0.9,0.9l-4.3-0.2h-0.1c-0.4-0.1-0.7-0.5-0.7-0.9
					C97.9,267.4,98.3,267.1,98.8,267.1z"/>
				<path class="st4" d="M78.6,236.6c0.5-0.2,1,0.1,1.1,0.5l1.6,4.4c0.2,0.5-0.1,1-0.5,1.1c-0.2,0.1-0.3,0.1-0.5,0
					c-0.3-0.1-0.6-0.3-0.7-0.6l-1.6-4.4C77.9,237.3,78.2,236.7,78.6,236.6z"/>
				<path class="st4" d="M111.8,225.8c-0.8-1.1-1.8-1.5-3.2-1.4c-0.5,0.1-0.9-0.3-1-0.8s0.3-0.9,0.8-1c2.6-0.3,4.1,1,4.9,2.2
					c0.8,1.2,1.1,2.5,1.1,2.5c0.1,0.5-0.2,0.9-0.7,1c-0.1,0-0.2,0-0.3,0c-0.3-0.1-0.6-0.3-0.7-0.7
					C112.6,227.7,112.4,226.7,111.8,225.8z"/>
				<path class="st4" d="M77,228.6c0.5-0.7,1.2-0.8,1.6-0.9c0.1,0,0.2,0,0.3,0l0,0l0,0l0,0c0.5,0.1,0.8,0.5,0.7,1
					c-0.1,0.5-0.5,0.8-0.9,0.8c-0.1,0-0.3,0.1-0.4,0.2c-0.1,0.2-0.4,0.8,0.1,2.4c0.1,0.5-0.1,1-0.6,1.1c-0.1,0-0.3,0.1-0.4,0
					c-0.3-0.1-0.6-0.3-0.7-0.6C76.2,230.9,76.3,229.5,77,228.6z"/>
				<path class="st4" d="M88.9,262.7c0.5-0.1,1,0.2,1.1,0.6c0,0.1,0.8,2.9,4.3,3.3c0.5,0,0.8,0.5,0.8,1s-0.5,0.8-1,0.8
					c-0.3,0-0.5-0.1-0.8-0.1c-4-0.8-5-4.3-5-4.5C88.1,263.3,88.4,262.8,88.9,262.7z"/>
				<path class="st4" d="M123.8,268c0.7,0.1,2.8,0.3,3.5-0.6c0.4-0.6,0.3-1.7-0.5-3.2c-0.2-0.4,0-1,0.4-1.2s1,0,1.2,0.4
					c1.1,2.2,1.2,3.9,0.3,5.1c-1.5,1.9-4.8,1.3-5.2,1.2c-0.5-0.1-0.8-0.6-0.7-1C122.9,268.2,123.3,267.9,123.8,268z"/>
			</g>
		</g>
	</g>
</g>
</svg>
