<?xml version="1.0" encoding="utf-8"?>
<!-- Generator: Adobe Illustrator 26.2.1, SVG Export Plug-In . SVG Version: 6.00 Build 0)  -->
<svg version="1.1" id="Layer_1" xmlns="http://www.w3.org/2000/svg" xmlns:xlink="http://www.w3.org/1999/xlink" x="0px" y="0px"
	 viewBox="0 0 1000 400" style="enable-background:new 0 0 1000 400;" xml:space="preserve">
<style type="text/css">
	.st0{fill:#F7921E;}
	.st1{fill:url(#SVGID_1_);}
	.st2{fill:url(#SVGID_00000085252828839634273020000004537140850622944648_);}
	.st3{fill:url(#SVGID_00000157310562415320970670000017874271873043973038_);}
	.st4{fill:url(#SVGID_00000170275438275970398950000001568853839134984101_);}
	.st5{fill:url(#SVGID_00000066488237308670501150000004892989513977325976_);}
	.st6{fill:url(#SVGID_00000030482871628725054720000004740289975696358843_);}
	.st7{opacity:0.35;}
	.st8{fill:#3C1847;}
	.st9{fill:#010101;}
	.st10{opacity:0.7;}
	.st11{fill:#FFFFFF;}
	.st12{fill:#253959;}
	.st13{fill:#24112D;}
	.st14{opacity:0.6;}
</style>
<g>
	<g>
		<g>
			<g>
				<path class="st0" d="M416.2,103.9l8.8-0.9v17.4c4.2-1.8,11-4,16.7-4c14,0,22.4,7.2,22.4,20.1V160l-8.8,0.9v-24.5
					c0-7.5-2.1-11.8-14.6-11.8c-4.3,0-11.3,1.5-15.8,3.6V160l-8.8,0.9V103.9z"/>
				<path class="st0" d="M515.1,143.3l-36.4-0.2c1.5,5.3,5.9,9.6,15.9,9.6c5.8,0,11.8-1.2,15.4-2.4l2.5,7.7
					c-3.8,1.7-11.2,3.1-18.1,3.1c-15,0-25.1-9.1-25.1-22.5c0-13.3,9.6-22.4,24.6-22.4c11.2,0,21.5,6.6,21.5,20.3
					C515.5,139.7,515.1,143.3,515.1,143.3z M478.4,135l28.2-0.2c-0.1-7.6-5.4-10.5-12.4-10.5C484,124.3,479.5,129.2,478.4,135z"/>
				<path class="st0" d="M555.8,117.1l-1.9,8.2c0,0-3.5-1-8.5-1c-4.2,0-11.2,1.6-15.1,3.8v31.7l-8.7,0.9v-43.3l7.3-0.6l0.6,3.6
					c4-1.8,10.8-4.3,16.9-4.3C552.7,116.1,555.8,117.1,555.8,117.1z"/>
				<path class="st0" d="M556.1,138.5c0-13.3,10.4-22.4,25.9-22.4c15.5,0,26,9.1,26,22.4c0,13.4-10.5,22.5-26,22.5
					C566.5,161,556.1,151.9,556.1,138.5z M565,138.5c0,4,1.7,14.1,17,14.1s17-10.1,17-14.1c0-4-1.7-14-17-14S565,134.5,565,138.5z"
					/>
			</g>
			<g>
				<path class="st0" d="M332.8,136.4c0-7.5-2.1-11.8-12.1-11.8c-3.6,0-9.3,1.1-13.8,2.8c1,2.5,1.6,5.6,1.6,9V160l-8.8,0.9v-24.5
					c0-7.5-2.1-11.8-12.1-11.8c-4.1,0-10.6,1.5-15.1,3.5V160l-8.8,0.9v-43.3l7.4-0.6l0.6,3.6c4.1-1.8,10.8-4.3,16.8-4.3
					c5.9,0,10.8,1.7,14.3,5c3.8-1.9,12.1-5,18.9-5c12.3,0,19.9,7.2,19.9,20.1V160l-8.7,0.9L332.8,136.4z"/>
				<path class="st0" d="M387.3,117l-23.8,61.9l-10.3,0.9l8.3-18.9h-1.8l-16.7-43.3l9.6-0.4l12.5,35.4l12.5-35.2L387.3,117z"/>
			</g>
		</g>
		<g>
			<radialGradient id="SVGID_1_" cx="371.4986" cy="247.0043" r="86.337" gradientUnits="userSpaceOnUse">
				<stop  offset="0.5744" style="stop-color:#160F11"/>
				<stop  offset="0.7977" style="stop-color:#160F11"/>
				<stop  offset="1" style="stop-color:#160F11"/>
			</radialGradient>
			<path class="st1" d="M479.4,189.8l-35.9,114.4h-44.6l-27.7-65.5l-27.1,65.5h-44.6l-35.9-112.5l41.4-1.8l19.1,68.7l24.6-66.6
				l45.7-2l24.6,68.4l18.9-66.6L479.4,189.8z"/>
			
				<radialGradient id="SVGID_00000077295793842449917480000010002137671725780112_" cx="544.3354" cy="246.6632" r="61.1019" gradientUnits="userSpaceOnUse">
				<stop  offset="0.5744" style="stop-color:#160F11"/>
				<stop  offset="0.7977" style="stop-color:#160F11"/>
				<stop  offset="1" style="stop-color:#160F11"/>
			</radialGradient>
			<path style="fill:url(#SVGID_00000077295793842449917480000010002137671725780112_);" d="M577.3,297.4
				c-9.8,4.3-21.6,7.7-33.2,7.7c-39.1,0-63.4-23.4-63.4-58.4s23.9-58.4,63-58.4c10.9,0,23,3.9,32.7,8.2l3.6-6.6l28,1.8v112.5h-27.3
				L577.3,297.4z M569.1,264.6v-35.5c-7.5-2-15.9-3.6-23-3.6c-22.5,0-26.6,13-26.6,21.1s4.1,21.1,26.6,21.1
				C554.8,267.8,562.5,266.4,569.1,264.6z"/>
			
				<radialGradient id="SVGID_00000153680278485035876320000015536725646872599735_" cx="649.7144" cy="231.446" r="53.2187" gradientUnits="userSpaceOnUse">
				<stop  offset="0.5744" style="stop-color:#160F11"/>
				<stop  offset="0.7977" style="stop-color:#160F11"/>
				<stop  offset="1" style="stop-color:#160F11"/>
			</radialGradient>
			<path style="fill:url(#SVGID_00000153680278485035876320000015536725646872599735_);" d="M630.4,161l38.7-2.3v145.5h-38.7V161z"
				/>
			
				<radialGradient id="SVGID_00000074430959968734851390000014477861103243842733_" cx="710.4182" cy="231.446" r="53.2187" gradientUnits="userSpaceOnUse">
				<stop  offset="0.5744" style="stop-color:#160F11"/>
				<stop  offset="0.7977" style="stop-color:#160F11"/>
				<stop  offset="1" style="stop-color:#160F11"/>
			</radialGradient>
			<path style="fill:url(#SVGID_00000074430959968734851390000014477861103243842733_);" d="M691.1,161l38.7-2.3v145.5h-38.7V161z"
				/>
			
				<radialGradient id="SVGID_00000173160616303487829450000006190239802235958693_" cx="805.5668" cy="246.6632" r="59.29" gradientUnits="userSpaceOnUse">
				<stop  offset="0.5744" style="stop-color:#160F11"/>
				<stop  offset="0.7977" style="stop-color:#160F11"/>
				<stop  offset="1" style="stop-color:#160F11"/>
			</radialGradient>
			<path style="fill:url(#SVGID_00000173160616303487829450000006190239802235958693_);" d="M864.8,259.6l-78.7,0.2
				c2.7,6.4,9.3,12,26.1,12c15.2,0,31.8-2.3,41.4-5l5.2,31.6c-11.8,4.3-29.1,6.6-47.1,6.6c-39.1,0-66.4-23.4-66.4-58.4
				s25.9-58.4,65-58.4c29.1,0,55.2,18.9,55.2,54.3C865.7,251.4,864.8,259.6,864.8,259.6z M786.6,232.8l40-0.9
				c0-3.9-1.8-13.4-15.7-13.4C796.4,218.5,789.8,225.1,786.6,232.8z"/>
			
				<radialGradient id="SVGID_00000172403316704709903750000007159133560677664179_" cx="924.2918" cy="234.1585" r="61.2827" gradientUnits="userSpaceOnUse">
				<stop  offset="0.5744" style="stop-color:#160F11"/>
				<stop  offset="0.7977" style="stop-color:#160F11"/>
				<stop  offset="1" style="stop-color:#160F11"/>
			</radialGradient>
			<path style="fill:url(#SVGID_00000172403316704709903750000007159133560677664179_);" d="M895.2,190.1l9.8-25l27.5-1.8v26.8H970
				l-2.7,37.1h-34.8v34.1c0,6.4,5.2,6.6,13.9,6.6c13.2,0,22.7-1.6,22.7-1.6l5,36.2c0,0-14.1,2.7-29.1,2.7
				c-24.1,0-51.2-6.4-51.2-41.4v-36.6h-19.3l3-37.1H895.2z"/>
		</g>
	</g>
	<g>
		<g>
			<g>
				<path class="st0" d="M315.5,285.5c-1.7-0.6-3.5-1.1-5.4-1.5l0,0c-5.4-1-11.2-0.9-14.2,1.6c-3.1,2.7-4.9,6-6.9,8.8
					c-2.4,3.3-5.1,5.8-10.8,5.3c-0.6-0.1-1.2-0.1-1.8-0.2c-8.6-1.4-14.8-7.1-18.9,2l-19.9-38.8l-34.4-66.9l84.5,57.2l28,31.5
					C316.5,285.3,316.4,285.8,315.5,285.5z"/>
			</g>
		</g>
		<g class="st7">
			<g>
				<path class="st8" d="M310.1,284c-5.4-1-11.2-0.9-14.2,1.6c-3.1,2.7-4.9,6-6.9,8.8c0.3-2.3,0.1-5.2-1.5-8.9
					c-3.9-8.5-54.6-47.1-51.3-49.3C238.3,235,309,283.3,310.1,284z"/>
			</g>
		</g>
		<g class="st7">
			<g>
				<path class="st8" d="M276.4,299.5c-8.6-1.4-14.8-7.1-18.9,2l-19.9-38.8C253.7,277.7,271.8,295.1,276.4,299.5z"/>
			</g>
		</g>
		<g>
			<g>
				<path class="st8" d="M202.6,195.1l85.3,57.8l28,31.5c0.5,0.4,0.7,0.8,0.6,1.1c-0.1,0.2-0.4,0.4-1,0.1
					c-6.5-2.4-15.5-3.2-19.3,0.1c-2.3,2-3.9,4.3-5.4,6.6c-2.9,4.4-5.5,8.2-12.5,7.6c-3-0.2-5.7-1.1-8.1-1.9c-5.4-1.7-9.4-3-12.3,3.5
					l-0.2,0.5L202.6,195.1z M270.2,297.7c2.4,0.8,5.1,1.6,8,1.9c6.8,0.5,9.2-3.1,12.1-7.4c1.5-2.3,3.1-4.6,5.5-6.7
					c3.9-3.4,13.1-2.6,19.8-0.2c0.1,0,0.2,0.1,0.3,0.1c0.1,0,0.1,0,0.2,0c0-0.1-0.1-0.3-0.5-0.5l-28-31.5l-83.7-56.7L257.5,301
					c2.2-4.6,5.1-5.2,8.5-4.5C267.3,296.7,268.7,297.2,270.2,297.7z"/>
			</g>
		</g>
		<g>
			<g>
				<path class="st9" d="M197.1,189l91.9,62.3l0.2,0.2l28,31.6c1.5,1.3,1.4,2.7,0.9,3.6c-0.5,0.9-1.7,1.7-3.5,1
					c-5.9-2.2-14.2-2.9-17.3-0.3c-2.1,1.8-3.6,4-5,6.2c-3,4.5-6.2,9.2-14.4,8.5c-3.2-0.3-6.1-1.2-8.6-2c-5.8-1.8-7.7-2.2-9.8,2.4
					l-1.9,4.3L197.1,189z M270.8,295.7c2.4,0.8,4.9,1.5,7.6,1.8c5.6,0.5,7.4-2.3,10.2-6.5c1.5-2.3,3.3-4.8,5.8-7.1
					c3.5-3,9.7-3.3,15.5-2.3l-23.8-26.8l-76.8-52.1l48.4,94.2c2.6-2.9,5.7-3,8.8-2.4C268,294.8,269.4,295.3,270.8,295.7z
					 M315.7,284.6L315.7,284.6L315.7,284.6z"/>
			</g>
		</g>
		<g>
			<g>
				<path class="st0" d="M175.9,176.1l141.4,85.7c11.9,7.2,17.1,21.7,12.5,34.8v0c0,0-19.5-17.4-34-30.2
					C267.5,241.5,175.9,176.1,175.9,176.1z"/>
			</g>
		</g>
		<g class="st10">
			<g>
				<path class="st11" d="M329.8,296.7c0,0-0.8-0.7-2.2-1.9c2.1-11.8-3.2-23.8-13.7-30.2l-97.5-59.1c-22.1-16.2-39.8-28.8-40.5-29.3
					l141.4,85.7C329.2,269.1,334.4,283.6,329.8,296.7z"/>
			</g>
		</g>
		<g>
			<g>
				<path class="st9" d="M328.3,298.4c-0.2-0.2-19.7-17.5-34-30.2c-27.9-24.7-118.8-89.6-119.7-90.2l2.5-3.8l141.4,85.7
					c12.7,7.7,18.4,23.5,13.5,37.5l-1.1,3.2L328.3,298.4z M297.3,264.8c11.1,9.9,25.4,22.5,31.3,27.8c2.3-11.1-2.6-22.8-12.5-28.7
					l-93.9-56.9C249.8,227.1,282.4,251.6,297.3,264.8z"/>
			</g>
		</g>
		<g>
			<g>
				<path class="st11" d="M203.2,362.4c-10.7,4.8-30.9-0.1-22.3-26.8c0,0-19.2-6.2-33.7-17.1c-7.2-5.4-13.3-12-15.3-19.6l55.4-55.4
					c0,0,5.8,27.6,12.3,42.7c3.7,8.6,10,17.1,15.8,22.9c1.6,1.6,3.1,3,4.5,4.1C229.9,321.2,217.8,355.9,203.2,362.4z"/>
			</g>
		</g>
		<g class="st7">
			<g>
				<path class="st9" d="M209.1,358.2c-1.9,1.8-3.8,3.3-5.8,4.1c-10.7,4.8-30.9-0.1-22.3-26.8c0,0-19.2-6.2-33.7-17.1l0,0
					c-1.4-1.1-2.8-2.2-4.2-3.4c-0.2-0.2-0.5-0.4-0.7-0.7c-1.9-1.7-3.6-3.6-5.2-5.5c-0.1-0.2-0.2-0.3-0.4-0.5c-0.5-0.7-1-1.4-1.5-2.1
					c-0.1-0.2-0.3-0.4-0.4-0.6c-0.3-0.4-0.5-0.9-0.8-1.3c-0.1-0.2-0.2-0.4-0.3-0.6c-0.2-0.5-0.5-0.9-0.7-1.4
					c-0.1-0.2-0.2-0.4-0.3-0.6c-0.1-0.2-0.2-0.5-0.3-0.7c-0.1-0.2-0.2-0.5-0.2-0.7c-0.1-0.2-0.1-0.3-0.2-0.5c0-0.1-0.1-0.2-0.1-0.4
					c-0.1-0.2-0.1-0.4-0.2-0.5l55.4-55.4c0,0,0,0,0,0c0,0,0,0,0,0c0,0,0,0.1,0,0.1c0.1,0.3,0.2,0.9,0.4,1.9
					c1.5,6.7,6.4,28,11.8,40.7c3.7,8.6,10,17.1,15.8,22.9c-9,7-20.1,11.8-32.2,13.5c-4.4,0.6-4.7,6.8-0.5,7.9
					c9.6,2.6,16.8,2.9,16.8,2.9C181.7,353.7,198.2,361.8,209.1,358.2z"/>
			</g>
		</g>
		<g>
			<g>
				<path class="st9" d="M190.9,365.8c4.6,0.9,9.5,0.3,13.2-1.4c10.6-4.7,19.5-22.4,21.3-36.1c1-8.1-0.4-14-4.2-17
					c-6.1-4.9-14.9-15.2-19.6-26.1c-6.4-14.7-12.1-42-12.1-42.3c-0.3-1.2-1.5-2-2.7-1.8c-1.2,0.3-2,1.5-1.8,2.7
					c0.2,1.1,5.9,28,12.4,43.2c5,11.6,14.3,22.5,20.9,27.8c2.4,2,3.4,6.6,2.5,12.9c-1.6,12.1-9.6,28.5-18.6,32.5
					c-4.8,2.1-12.3,2.1-17-2c-4.7-4.3-5.5-11.9-2.2-22l0.7-2.2l-2.2-0.7c-0.4-0.1-41.9-13.8-47.5-35.1c-0.3-1.2-1.6-1.9-2.8-1.6
					c-1.2,0.3-1.9,1.6-1.6,2.8c5.5,21,39.4,34.3,48.4,37.5c-3.8,13.7,0.1,20.9,4.2,24.6C184.8,363.9,187.8,365.2,190.9,365.8z"/>
			</g>
		</g>
		<g>
			<g>
				<path class="st9" d="M166.5,331.6c0.1,0,0.2,0,0.3,0c12.9,0.1,39.6-4.6,48.7-23.2c0.4-0.8,0.1-1.9-0.8-2.3
					c-0.8-0.4-1.9-0.1-2.3,0.8c-7.7,15.8-31.5,21.4-45.6,21.3c-0.9,0-1.7,0.8-1.7,1.7C165.1,330.7,165.7,331.4,166.5,331.6z"/>
			</g>
		</g>
		<g>
			<g>
				<path class="st9" d="M180.3,337.7c1.2,0.3,2.2,0.5,3.3,0.6c0.5,0.1,1.1,0.1,1.6,0.1c0.5,0,1.1,0,1.6,0c2.2,0,4.3-0.4,6.4-0.9
					c2.1-0.6,4.2-1.4,6-2.6c1.9-1.2,3.5-2.7,4.7-4.4c0.1-0.2,0.1-0.4-0.1-0.5c-0.1-0.1-0.3-0.1-0.4,0l0,0c-1.8,1.1-3.5,1.9-5.3,2.4
					c-1.9,0.5-3.7,0.8-5.6,1c-1.9,0.1-3.8,0.1-5.7,0c-1,0-1.9-0.1-2.9-0.1c-0.9,0-1.9-0.1-2.8-0.1l-0.2,0c-1.3,0-2.3,1-2.4,2.2
					C178.7,336.5,179.4,337.4,180.3,337.7z"/>
			</g>
		</g>
		<g>
			<g>
				<path class="st11" d="M100.2,267.3c-5.4,2.8-10.6,4.9-14.5,5.8c-32.6,7.6-42.7-22.3-37-35.4c7.6-17.7,24.5-6.3,24.5-6.3
					c6.9,0.6,13.3-1.6,18.4-7.7c6.3-7.5,10.7-20.8,11.6-41.9c0.2-3.5,0.2-7.1,0.2-11l4.1,9.5l21.3,49
					C133.2,244.4,115.7,259.2,100.2,267.3z"/>
			</g>
		</g>
		<g class="st7">
			<g>
				<path class="st9" d="M129.2,237.6c-0.1,0.3-0.1,0.5-0.2,0.8c0,0,0,0.1,0,0.1c-0.1,0.2-0.1,0.5-0.2,0.7c0,0,0,0.1,0,0.1
					c-0.1,0.2-0.1,0.5-0.2,0.7c-0.1,0.2-0.1,0.4-0.2,0.6c0,0.1-0.1,0.2-0.1,0.3c-0.3,0.7-0.6,1.5-1,2.2c-0.1,0.3-0.3,0.5-0.4,0.8
					c0,0,0,0,0,0c-0.1,0.2-0.2,0.5-0.4,0.7c0,0-0.1,0.1-0.1,0.1c-0.1,0.2-0.3,0.5-0.4,0.7c-0.2,0.3-0.3,0.5-0.5,0.8
					c-0.1,0.1-0.2,0.2-0.2,0.4c-0.2,0.3-0.3,0.5-0.5,0.8c0,0,0,0.1-0.1,0.1c-0.1,0.2-0.2,0.3-0.3,0.5c-0.2,0.3-0.4,0.5-0.6,0.8
					c-0.1,0.2-0.2,0.3-0.4,0.5c-0.4,0.5-0.8,1-1.3,1.6c-0.2,0.2-0.4,0.4-0.6,0.6c-1.2,1.4-2.6,2.7-4,4c-0.2,0.2-0.3,0.3-0.5,0.5
					c-0.2,0.2-0.3,0.3-0.5,0.5c-0.4,0.3-0.7,0.6-1.1,0.9c-0.3,0.3-0.7,0.6-1,0.9c-0.9,0.8-1.9,1.5-2.9,2.2c-0.2,0.1-0.4,0.3-0.6,0.4
					c-2.2,1.6-4.4,3-6.7,4.3c-0.3,0.2-0.6,0.3-0.9,0.5c-0.1,0-0.1,0.1-0.2,0.1c-0.4,0.2-0.8,0.5-1.2,0.7c-0.6,0.3-1.2,0.6-1.8,1
					c-5.4,2.8-10.6,4.9-14.5,5.8c-26.7,6.2-38.3-12.7-38.5-26.9c4.2,11.5,15.9,21.9,36.6,17.1c0,0,0.1,0,0.1,0
					c7.3-1.7,11.8-9,10.4-16.3c-1.6-8-2.4-15.8-2.7-23.2c6.3-7.5,10.7-20.8,11.6-41.9l4.3-1.6l20,45.9l1.3,3.1
					C129.7,232.1,129.8,234.8,129.2,237.6z"/>
			</g>
		</g>
		<g>
			<g>
				<path class="st9" d="M68.9,275.9c5.2,1,11.1,0.9,17.3-0.6c11.8-2.7,33.5-14.6,42-29c3.6-6,4.5-12,2.9-17.6
					c-0.3-1.2-1.6-1.9-2.8-1.6c-1.2,0.3-1.9,1.6-1.6,2.8c1.3,4.4,0.4,9.1-2.5,14c-7.5,12.8-27.8,24.3-39.1,26.9
					c-15.9,3.7-24.8-2.1-29.4-7.6c-6.5-7.7-7.6-18.6-5-24.6c1.9-4.4,4.5-7.1,7.8-8.1c6.3-1.9,13.3,2.7,13.3,2.8l0.5,0.3l0.6,0.1
					c6.9,0.6,13-1.4,18-5.9c10-9.2,15-28.4,14.8-56.9c0-1.3-1-2.3-2.3-2.3c-1.3,0-2.3,1-2.3,2.3c0.2,26.8-4.4,45.3-13.3,53.5
					c-3.9,3.6-8.5,5.2-13.9,4.8c-2-1.2-9.4-5.2-16.6-3.1c-4.7,1.4-8.3,5-10.8,10.7c-3.1,7.2-2.1,19.9,5.7,29.4
					C56.6,271.3,62.3,274.6,68.9,275.9z"/>
			</g>
		</g>
		<g>
			<g>
				<path class="st11" d="M192.3,316.1c-17.4,4.2-37.4,1.9-56.1-9.7c-33.3-20.6-39.7-61.2-39.7-89.5c0-17.8,2.6-30.7,2.6-30.7
					l89.9-33.1c1.4,15.4,5.3,26.6,10.4,35.6c9.7,17.3,23.7,26.6,32.5,42.2c3.1,5.5,5.6,11.7,7,19.3c0.1,0.3,0.1,0.6,0.2,0.8
					c0.4,2.5,0.7,5,0.8,7.4C241.2,286.6,220,309.5,192.3,316.1z"/>
			</g>
		</g>
		<g class="st7">
			<g>
				<path class="st9" d="M136.3,306.4c-24-14.8-34-40-37.7-63.4c4.7,20.9,15,42.1,36.2,55.2c49.7,30.7,109.2-4.2,103.4-52.1
					c0.4,1.6,0.8,3.3,1.1,5.1C248,300.7,187.1,337.8,136.3,306.4z"/>
			</g>
		</g>
		<g>
			<g>
				<path class="st9" d="M135.1,308.4c-22.8-14.1-36.7-39.8-40-74.4c-2.5-25.9,1.7-47.3,1.8-48.2l0.2-1.3l93.9-34.6l0.3,3
					c2.7,29.9,15,43.5,26.9,56.6c10.1,11.2,19.7,21.8,23.2,41.2c4,22.4-5.5,43.9-25.4,57.4c-11.1,7.5-24.2,11.7-38,12.1
					c-5.6,0.2-11.1-0.3-16.6-1.4C152.3,317.1,143.4,313.5,135.1,308.4z M101.2,188c-0.8,4.9-3.7,23.9-1.5,45.7
					c2.2,23,10.6,54,37.8,70.8c29.3,18.1,58.5,11.8,76-0.1c18.4-12.5,27.1-32.2,23.5-52.8c-3.2-18.1-12.4-28.2-22.1-38.9
					c-12-13.3-24.4-27-27.7-56.3L101.2,188z"/>
			</g>
		</g>
		<g class="st7">
			<g>
				<path class="st9" d="M199.4,188.8c-23.1,30.9-66.9,43.8-102.9,28.2c0-17.8,2.6-30.7,2.6-30.7l89.9-33.1
					C190.5,168.6,194.4,179.8,199.4,188.8z"/>
			</g>
		</g>
		<g class="st7">
			<g>
				<path class="st8" d="M183.4,186.2c-11.7-3.2-17.1-19.4-11.5-35.3c3.7,18.6,27.7-5.6,30.7-13.4
					C231.2,151.8,204.6,192.5,183.4,186.2z"/>
			</g>
		</g>
		<g class="st10">
			<g>
				<path class="st11" d="M167.4,134.3c-7.9,14.9-25,6.2-20.3-7.8C153.9,109.1,174.2,119.1,167.4,134.3z"/>
			</g>
		</g>
		<g>
			<g>
				<g>
					<path class="st11" d="M33,150.9C76.9,264,236.3,208.7,205.9,95.7C163.7-21.2-0.9,36.2,33,150.9z"/>
				</g>
			</g>
			<g>
				<g>
					<path class="st11" d="M33,150.9C76.9,264,236.3,208.7,205.9,95.7C163.7-21.2-0.9,36.2,33,150.9z"/>
				</g>
			</g>
			<g>
				<g>
					<path class="st11" d="M33,150.9C76.9,264,236.3,208.7,205.9,95.7C163.7-21.2-0.9,36.2,33,150.9z"/>
				</g>
			</g>
			<g>
				<g>
					<path class="st8" d="M81.9,207.4c-22.7-9.9-40.2-29.3-50.5-55.9l0-0.1c-8-27.2-5.6-53.1,7-75c11.3-19.5,29.9-34.3,52.4-41.7
						c22.5-7.4,46.1-6.4,66.5,2.7c23,10.3,40.4,30.3,50.3,57.7l0,0.1c7.2,26.8,4.3,52.3-8.3,73.7c-11.3,19.1-29.7,33.7-51.8,40.9
						c-15.8,5.2-32.1,6.2-47.6,3.1C93.7,211.8,87.7,209.9,81.9,207.4z M91.9,38C52.2,51,17.3,91.7,34.6,150.3
						c22.1,56.9,72,69.3,111.7,56.3c38.7-12.7,73.4-52.6,57.9-110.3C183.1,37.8,131.2,25.1,91.9,38z M33,150.9L33,150.9L33,150.9z"
						/>
				</g>
			</g>
			<g class="st7">
				<g>
					<path class="st12" d="M33,150.9c36.2,98.4,174.3,72.6,176.9-28.1c-11.3,30.9-22.5,30.3-42.1,43.7
						C107.3,211,32.9,158.2,33.5,92.1C26.7,111.4,26.8,132.1,33,150.9z"/>
				</g>
			</g>
			<g>
				<g>
					<path class="st9" d="M81.6,208c-22.9-10-40.5-29.5-50.9-56.3l-0.1-0.2C22.6,124.2,25,98.1,37.8,76c11.4-19.7,30.1-34.6,52.8-42
						c22.6-7.4,46.4-6.4,67,2.8c23.2,10.4,40.7,30.5,50.7,58.1l0.1,0.2c7.3,27,4.3,52.7-8.4,74.2c-11.4,19.3-30,33.9-52.2,41.2
						c-15.9,5.2-32.4,6.2-47.9,3.1C93.5,212.4,87.4,210.6,81.6,208z M92.1,38.6C52.7,51.6,18.2,91.9,35.3,150.1
						c22,56.4,71.5,68.7,110.8,55.8c38.4-12.6,72.8-52.2,57.5-109.4C182.6,38.5,131.1,25.8,92.1,38.6z M33,150.9L33,150.9L33,150.9z
						"/>
				</g>
			</g>
			<g>
				<g>
					<path class="st8" d="M43.1,171.8c77.5,73.2,177.3-14,123.1-90.1C100.4,0.3-12,78.4,43.1,171.8z"/>
				</g>
			</g>
			<g>
				<g>
					<path class="st13" d="M31.7,104.5C10,198.4,142.5,236.7,176.5,154.2C122,195,46.6,155.7,31.7,104.5z"/>
				</g>
			</g>
			<g>
				<g>
					<path class="st9" d="M72.5,202.2c-18.7-9.7-33-27.2-41.4-50.7l0,0c-7-20-6.2-43.6,2.3-64.7c9-22.3,25.4-39.4,46.3-48.2l0.3-0.1
						c23.8-5.5,49.9-0.3,71.7,14.3c21.7,14.6,36.4,36.6,40.3,60.6c3.2,23.2-2.1,44.8-15.2,62.5c-11.9,16.1-29.3,27.6-49,32.4
						c-11.8,2.9-23.9,3.2-35.3,0.9C85.6,207.9,78.8,205.5,72.5,202.2z M81.1,42.5C37.4,61,21.9,113.1,34.9,150.2
						c18.7,52,61.2,61.7,91.9,54.2c35.3-8.6,67.7-42.5,61.1-90.4c-3.7-22.8-17.7-43.9-38.5-57.8c-10.5-7-22-11.8-33.7-14.1
						C104.2,39.8,92.4,39.9,81.1,42.5z M33,150.9L33,150.9L33,150.9z"/>
				</g>
			</g>
			<g>
				<g>
					<path class="st8" d="M41.4,173.6l-0.3-0.2l-0.2-0.3c-13.2-22.4-17.9-45.7-13.4-67.2c4-19.3,15.1-36,31.2-47.2
						C74.5,47.7,93.6,43.2,112.4,46c20.9,3.1,40.2,14.9,55.7,34.2l0.1,0.1c12.6,17.7,17.9,37.3,15.2,56.5
						c-2.4,17.4-11.4,33.6-25.1,45.6c-14.9,13-34,19.9-53.8,19.4c-4.7-0.1-9.3-0.6-13.9-1.5C73.2,196.8,56.4,187.8,41.4,173.6z
						 M61.5,62.6c-15.4,10.6-27.4,28.5-30.1,50.5c-5,41.2,24.7,78.5,65.9,83.4c22.3,2.6,42.9-4.9,57.6-17.8
						c23.7-20.6,35.7-58.2,9.2-95.5C131.4,42.6,89,43.6,61.5,62.6z M43.1,171.8L43.1,171.8L43.1,171.8z"/>
				</g>
			</g>
			<g>
				<g>
					<path class="st0" d="M215.3,163.2c-15.1,40.1-56.5,28.4-46-11.3C183.6,109.3,227.9,121.8,215.3,163.2z"/>
				</g>
			</g>
			<g>
				<g>
					<path class="st9" d="M181.1,189.5c-11.1-3.6-19.8-16.8-14.1-38.3l0-0.1c3.6-10.6,9.2-18.8,16.4-23.6c6.5-4.3,14-5.6,20.6-3.5
						c11.3,3.6,20.4,17.6,13.6,39.9l-0.1,0.1c-8,21.3-22.9,28.3-34.3,26C182.6,189.9,181.8,189.7,181.1,189.5z M202.5,128.6
						c-10.2-3.3-24.1,3.9-30.8,23.9c-4.8,18.4,2,29.5,10.9,32.3c9.4,3,23-2.7,30.4-22.4C218.8,143.3,211.6,131.5,202.5,128.6z"/>
				</g>
			</g>
			<g>
				<g>
					<path class="st0" d="M216.5,165.8c-12.2,32.5-43.4,24.2-34.9-7.9C193,123,226.9,132,216.5,165.8z"/>
				</g>
			</g>
			<g>
				<g>
					<path class="st9" d="M189.6,188.2c-8.5-2.7-15.1-13.3-10.4-30.9l0-0.1c6.4-19.4,19.7-26.3,29.6-23.2c8.8,2.8,15.6,14.2,10,32.6
						l0,0.1c-6.7,17.8-18.6,23.7-27.5,21.9C190.7,188.5,190.2,188.4,189.6,188.2z M207.3,138.7c-7.6-2.4-18.1,3.7-23.5,20
						c-3.8,14.4,0.9,22.9,7.2,24.9c6.9,2.2,17-2.6,23-18.5C218.8,149.9,213.9,140.7,207.3,138.7z"/>
				</g>
			</g>
			<g class="st14">
				<g>
					<path class="st11" d="M39.8,114.6c2.6-70.3,74.8-64.5,93.1-45.7C87.2,62.7,58.7,73.4,39.8,114.6z"/>
				</g>
			</g>
			<g class="st7">
				<g>
					<path class="st9" d="M178.3,165.2c0.4-4.9,2.1-9.6,4.7-13.8c1.3,23.9,26.2,18.7,34.9,3.5C215.9,189.5,178.5,198.1,178.3,165.2z
						"/>
				</g>
			</g>
		</g>
		<g>
			<g>
				<path class="st9" d="M71.7,233.2c0.1,0.1,0.4,0.4,0.6,0.6c0.2,0.3,0.4,0.5,0.6,0.8c0.2,0.3,0.4,0.5,0.6,0.8
					c0.2,0.3,0.4,0.6,0.6,0.9c0.7,1.2,1.3,2.4,1.8,3.7c0.3,0.6,0.4,1.3,0.6,2c0.2,0.7,0.3,1.4,0.4,2.1c0.1,0.7,0.2,1.4,0.2,2.1
					c0,0.7,0.1,1.4,0.1,2.1c0,0.7,0,1.4-0.1,2.2c-0.1,0.7-0.2,1.4-0.3,2.2c-0.2,1.3-0.6,2.6-1.3,3.8c-1.3,2.4-3.3,4.4-6,6.1l0,0
					c-0.1,0.1-0.1,0.2-0.1,0.3c0,0.1,0.1,0.1,0.2,0.1c3.3,0.1,6.6-1.9,8.6-4.8c1-1.4,1.7-3.1,2.1-4.8c0.2-0.8,0.3-1.6,0.5-2.4
					c0.1-0.8,0.2-1.6,0.3-2.5c0.3-3.3,0-6.7-1.1-10c-0.5-1.6-1.3-3.2-2.1-4.7c-0.2-0.4-0.4-0.7-0.7-1.1c-0.2-0.4-0.5-0.7-0.8-1
					c-0.3-0.3-0.6-0.7-0.9-1c-0.3-0.3-0.6-0.6-1-1c-0.9-0.8-2.4-0.7-3.2,0.2c-0.8,0.9-0.7,2.3,0.1,3.1L71.7,233.2z"/>
			</g>
		</g>
		<g>
			<g>
				<path class="st11" d="M67.6,228.8c0,0,10.4,4.8,12.4,16.1c0,0,4.3,0.6,6.1-4.1c2.1-5.4-0.8-14.5-8.7-16.6
					C71.4,222.5,67.6,228.8,67.6,228.8z"/>
			</g>
		</g>
		<g class="st7">
			<g>
				<path class="st9" d="M86.1,240.8c-1.8,4.7-6.1,4.1-6.1,4.1c-2-11.3-12.4-16.1-12.4-16.1s0.8-1.4,2.3-2.7
					c3.1,1.3,8.1,4.2,11.2,9.8c1.2,2.1,4.2,2.3,5.5,0.3c0,0,0,0,0-0.1C86.9,237.8,86.7,239.4,86.1,240.8z"/>
			</g>
		</g>
		<g>
			<g>
				<path class="st9" d="M77.9,245.3c-1.8-9.9-11-14.4-11.2-14.5l-2.2-1l1.3-2.1c0.2-0.3,4.7-7.7,12.3-5.6c4,1.1,7.3,3.8,9.2,7.6
					c2,3.8,2.3,8.4,1,11.9c-1.9,5-6.3,5.8-8.4,5.5l-1.6-0.2L77.9,245.3z M71,228.2c3.2,2.1,8.7,6.7,10.8,14.3c0.8-0.3,1.7-1,2.2-2.5
					c0.9-2.3,0.6-5.6-0.8-8.3c-1.4-2.7-3.7-4.6-6.4-5.4c-0.1,0-0.3-0.1-0.4-0.1C74.1,225.8,72.2,227,71,228.2z"/>
			</g>
		</g>
		<g>
			<g>
				<path class="st11" d="M216.1,217.2l-43.7,3.9c-10.9-20.8-20.2-65.2-20.2-65.2s-4.8-1.1-9.8-4.7c-3.7-2.7-7.5-6.7-9.5-12.5
					c-0.6-1.9-1.1-3.9-1.3-6.2c-1.9-22.2,25.8-33,45.5-22.7C208,126,195.2,172.9,216.1,217.2z"/>
			</g>
		</g>
		<g class="st7">
			<g>
				<path class="st9" d="M164.8,151.8c-6.6,1.6-15.4,0.7-22.5-0.6c-3.7-2.7-7.5-6.7-9.5-12.5c11.4,2.9,40.7,8.5,47.5-6.5
					C180.3,132.2,184.9,147,164.8,151.8z"/>
			</g>
		</g>
		<g>
			<g>
				<path class="st9" d="M216.7,216.9c-0.5-2.2-1.1-4.3-1.7-6.4c-0.6-2.1-1.2-4.2-1.8-6.3c-1.2-4.2-2.4-8.4-3.5-12.6
					c-1.1-4.2-2.1-8.5-2.9-12.8c-0.8-4.3-1.5-8.7-2.2-13c-1.4-8.7-2.6-17.5-4.8-26.3c-1.1-4.4-2.5-8.7-4.4-12.9
					c-1.9-4.2-4.5-8.2-7.8-11.6l-1.2-1.3c-0.4-0.4-0.9-0.8-1.3-1.2l-1.4-1.1c-0.5-0.3-1-0.7-1.4-1c-0.5-0.3-1-0.7-1.5-1l-1.5-0.9
					c-0.5-0.3-1-0.6-1.5-0.9l-1.6-0.8c-4.3-1.9-9-3-13.7-3.2c-4.7-0.2-9.4,0.4-13.9,1.9c-4.5,1.5-8.7,3.9-12.2,7.3
					c-1.7,1.7-3.2,3.6-4.4,5.8c-1.2,2.1-2,4.5-2.5,6.9c-0.5,2.4-0.6,4.8-0.4,7.2c0.2,2.4,0.7,4.7,1.5,7c1.6,4.6,4.5,8.7,8.2,11.7
					c1.8,1.5,3.8,2.9,5.9,4c1,0.5,2.1,1,3.2,1.5c0.5,0.2,1.1,0.4,1.7,0.6c0.6,0.2,1.1,0.4,1.8,0.5l-1.7-1.8
					c1.2,5.6,2.5,11.2,3.9,16.7c1.4,5.6,2.9,11.1,4.5,16.6c0.8,2.8,1.7,5.5,2.5,8.2c0.9,2.7,1.7,5.5,2.6,8.2c0.2,0.7,0.5,1.4,0.7,2
					c0.3,0.7,0.5,1.3,0.8,2c0.3,0.7,0.6,1.3,0.9,2l0.4,1l0.5,1c0.7,1.3,1.4,2.6,2.2,3.8c0.9,1.2,1.7,2.4,2.7,3.5
					c0.3,0.3,0.8,0.3,1.1,0c0.2-0.2,0.3-0.5,0.2-0.7l0,0c-1.1-5.7-3.1-10.9-5-16.2c-0.5-1.3-1-2.6-1.5-4c-0.5-1.3-0.9-2.7-1.4-4
					c-0.8-2.7-1.7-5.4-2.5-8.1c-1.6-5.4-3.1-10.9-4.4-16.4c-1.4-5.5-2.7-11-3.9-16.6L154,154l-1.4-0.4c-0.4-0.1-0.9-0.3-1.4-0.4
					c-0.5-0.2-1-0.3-1.4-0.5c-1-0.4-1.9-0.8-2.8-1.3c-1.8-1-3.5-2.1-5.1-3.4c-3.1-2.6-5.5-6-6.8-9.8c-0.7-1.9-1.1-3.9-1.2-5.9
					c-0.2-2-0.1-4,0.3-6c0.4-1.9,1-3.8,2-5.6c1-1.7,2.2-3.3,3.6-4.7c2.9-2.8,6.5-4.9,10.4-6.2c3.9-1.3,8.1-1.9,12.2-1.7
					c4.1,0.2,8.2,1.2,12,2.8l1.4,0.7c0.5,0.2,0.9,0.5,1.4,0.8l1.3,0.8c0.4,0.3,0.8,0.6,1.3,0.9l1.3,0.9l1.2,1c0.4,0.3,0.8,0.6,1.2,1
					l1.1,1.1c2.9,3,5.2,6.5,6.9,10.3c1.8,3.8,3.1,7.9,4.1,12.1c2.1,8.4,3.3,17.1,4.7,25.9c1.4,8.7,2.8,17.6,4.8,26.3
					c1.1,4.4,2.4,8.7,4,12.9c0.9,2.1,1.7,4.2,2.8,6.1c1,2,2.2,3.9,3.6,5.8c0.2,0.3,0.7,0.4,1.1,0.2
					C216.7,217.6,216.8,217.3,216.7,216.9L216.7,216.9z"/>
			</g>
		</g>
		<g>
			<g>
				<path class="st9" d="M181,127.1c-1.2,1.3-1.9,2.4-2.5,3.5c-0.7,1.1-1.4,2.3-2.3,3.5c-0.9,1.1-2,2.1-3.1,3.1
					c-0.1,0.1-0.3,0.2-0.4,0.3c-0.1,0.1-0.2,0.2-0.3,0.2c-0.1,0.1-0.3,0.1-0.4,0.2c-0.1,0.1-0.3,0.1-0.4,0.2c-0.6,0.3-1.3,0.5-2,0.7
					c-2.8,0.8-5.9,1.1-8.9,1.1c-3.1,0-6.1-0.2-9.1-0.7c-3-0.5-5.9-1.3-8.6-2.6c-2.6-1.2-5-3-6.3-5.2c-0.7-1.1-1-2.3-1.2-3.6
					c-0.1-1.3,0-2.6,0.4-4c0.2-0.7,0.4-1.3,0.7-2c0.3-0.7,0.7-1.3,1-1.9c0.4-0.6,0.7-1.3,0.9-2c0.2-0.8,0.3-1.6,0-2.7l0,0
					c-0.1-0.6-0.7-0.9-1.2-0.8c-1.2,0.2-2,0.7-2.6,1.3c-0.6,0.6-1.1,1.3-1.5,2.1c-0.4,0.8-0.6,1.6-1,2.5c-0.3,0.8-0.6,1.7-0.8,2.5
					c-0.5,1.8-0.7,3.6-0.5,5.5c0.2,1.9,0.8,3.8,1.8,5.5c1,1.7,2.3,3.1,3.7,4.2c1.4,1.1,3,2.1,4.5,2.8c3.2,1.5,6.5,2.4,9.8,3
					c3.3,0.6,6.7,0.8,10,0.8c3.4-0.1,6.7-0.4,10.1-1.3c0.9-0.2,1.7-0.5,2.6-0.9c0.2-0.1,0.4-0.2,0.6-0.3c0.2-0.1,0.4-0.2,0.7-0.4
					c0.4-0.2,0.9-0.6,1.2-0.9c1.4-1.1,2.6-2.3,3.9-3.5c1.2-1.3,2.4-2.8,3-4.5c0.7-1.7,1-3.8-0.2-5.7c-0.2-0.4-0.7-0.5-1.1-0.3
					c-0.1,0-0.1,0.1-0.2,0.1L181,127.1z"/>
			</g>
		</g>
		<g>
			<g>
				<path class="st11" d="M131.7,127.4c0,0,17.5,2,19.2,7.8c2.1,7-4.2,9.1-9.9,9.2c-5.5,0.1-9.5-0.1-11.4-4.8
					C127.1,133.3,131.7,127.4,131.7,127.4z"/>
			</g>
		</g>
		<g class="st7">
			<g>
				<path class="st8" d="M141,144.4c-5.5,0-9.5-0.1-11.4-4.8c-1.4-3.5-0.6-6.9,0.4-9.2c0,1.1,0.3,2.3,0.7,3.5
					c1.9,4.7,5.9,4.8,11.4,4.8c3.4,0,7-0.8,8.9-2.9C152.6,142.3,146.6,144.3,141,144.4z"/>
			</g>
		</g>
		<g>
			<g>
				<path class="st9" d="M127.5,140.4c-3-7.5,2.2-14.1,2.4-14.4l0.8-1l1.2,0.1c3.2,0.4,19,2.5,21.1,9.3c1.1,3.8,0.1,6.4-1,7.8
					c-2.7,3.6-8.1,4.2-11,4.2c-2.1,0-4.3,0-6.4-0.4C131.7,145.7,129,144.2,127.5,140.4z M132.8,129.8c-1,1.7-2.6,5.3-1.1,9
					c1.2,3,3.3,3.4,9.3,3.4c3.6,0,6.4-0.9,7.5-2.4c0.7-0.9,0.8-2.2,0.3-3.9c-0.6-2.1-6.3-4.2-12.5-5.4
					C135.1,130.2,133.9,130,132.8,129.8z"/>
			</g>
		</g>
		<g>
			<g>
				<path class="st11" d="M236.8,251.1c0,0,10.7,26.2,19.9,39.9c6.7,10,17.4,18.9,24.9,22.9c11.3,6.2,5.8,42.4-7.3,51.4
					c-9.6,6.6-30.4,5.4-26.8-22.4c0,0-47-8.9-57.1-30.2l0,0c-2.7-4.6-2.1-10.4,1.6-14.2L236.8,251.1z"/>
			</g>
		</g>
		<g class="st7">
			<g>
				<path class="st9" d="M282.1,355.4c-2.1,4.3-4.7,7.9-7.8,10c-9.6,6.6-30.4,5.4-26.8-22.4c0,0-47-8.9-57.1-30.2
					c-1.5-2.6-2-5.6-1.4-8.4c0,0,0,0,0-0.1c0.7-3.3,5-4.2,7-1.5c0.3,0.4,0.5,0.7,0.7,1.1c20.5,34.6,69.8,29.8,69.8,29.8
					c-21,23.9,6.4,33.3,14.2,22.8C281,356,281.6,355.8,282.1,355.4z"/>
			</g>
		</g>
		<g>
			<g>
				<path class="st9" d="M259.3,370.6c5.8,1.2,12.1-0.5,16.3-3.3c9.4-6.5,15-25.4,14.3-39.1c-0.4-8.2-2.9-13.8-7.3-16.2
					c-6.9-3.8-17.4-12.3-24.1-22.2c-8.9-13.3-17.2-38.7-17.3-39c-0.4-1.2-1.7-1.9-2.9-1.5c-1.2,0.4-1.9,1.7-1.5,2.9
					c0.3,1.1,8.6,26.3,17.8,40.1c7,10.5,18.2,19.6,25.7,23.7c2.8,1.5,4.6,6,4.9,12.4c0.6,12.2-4.3,29.6-12.3,35.1
					c-4.4,3-11.6,4.3-17,1c-5.5-3.3-7.6-10.7-6.3-21.3l0.3-2.1l-2.1-0.4c-0.5-0.1-46-8.9-55.5-29l-0.1-0.3c0,0-1.4-2.2-1.3-4.8
					c0-1.3-1-2.3-2.2-2.3c-1.3,0-2.3,1-2.3,2.2c-0.1,3.6,1.5,6.5,1.9,7.2c9.5,19.7,47.2,28.9,56.7,30.9c-1.3,14.3,3.9,20.7,8.7,23.6
					C255.4,369.5,257.3,370.2,259.3,370.6z"/>
			</g>
		</g>
		<g>
			<g>
				<path class="st9" d="M155.9,175c0.1,0,0.1,0,0.2,0c1.6,0.2,40.3,4.1,47.4-12.3c0.4-0.9,0-1.9-0.9-2.3c-0.9-0.4-1.9,0-2.3,0.9
					c-5,11.7-33.4,11.4-43.8,10.3c-0.9-0.1-1.8,0.6-1.9,1.5C154.4,174,155,174.8,155.9,175z"/>
			</g>
		</g>
		<g>
			<g>
				<path class="st9" d="M232.3,340.8c0.1,0,0.2,0,0.3,0c0.3,0,7.6,0.3,15.9-4.2c7.5-4.1,17.3-13.1,20.9-32.9c0.2-0.9-0.4-1.8-1.4-2
					c-0.9-0.2-1.8,0.4-2,1.4c-2.7,14.7-9.1,24.9-19,30.4c-7.4,4.1-14.2,3.9-14.2,3.9c-0.9,0-1.7,0.7-1.8,1.6
					C230.9,340,231.5,340.7,232.3,340.8z"/>
			</g>
		</g>
		<g>
			<g>
				<path class="st9" d="M247.1,344.8c0.6,0.2,1.1,0.3,1.6,0.3c0.5,0.1,1,0.1,1.5,0.1c0.5,0,1,0,1.5,0c0.5,0,1-0.1,1.5-0.2
					c2-0.3,4-1,5.8-2c1.8-1,3.4-2.3,4.6-3.9c0.7-0.7,1.2-1.6,1.7-2.4c0.3-0.4,0.4-0.9,0.6-1.3c0.2-0.4,0.4-0.9,0.6-1.3
					c0.1-0.1,0-0.3-0.1-0.4c-0.1,0-0.2,0-0.3,0.1l0,0c-0.7,0.7-1.3,1.4-1.9,2c-0.7,0.6-1.3,1.2-2.1,1.7c-1.4,1.1-2.9,1.8-4.5,2.4
					c-1.6,0.6-3.2,0.9-4.8,1.1c-0.4,0-0.8,0.1-1.2,0.1c-0.4,0-0.8,0-1.2,0c-0.4,0-0.8,0-1.2,0l-1.1,0l-0.3,0c-1.1,0-1.9,0.8-2,1.8
					C245.7,343.8,246.2,344.6,247.1,344.8z"/>
			</g>
		</g>
		<g>
			<g>
				<path class="st0" d="M96.5,248.1l3.9-3.7c1.9-1.8,4.3-3,6.8-3.4l42.9-6.6c0.7-0.1,0.8,8.8,0.9,9.5l-6.1,9.7L96.5,248.1z"/>
			</g>
		</g>
		<g>
			<g>
				<path class="st9" d="M95.7,248.3c-0.3-0.8-0.1-1.7,0.6-2.3l3-2.8c2.1-2,4.8-3.3,7.7-3.8l42.9-6.6c0.5-0.1,1,0.1,1.3,0.4
					c0.8,0.6,1.1,1.5,1.3,8.9c0,0.7,0.1,1.4,0.1,1.5l0.1,0.6l-6.9,11l-48.2-5.5c-0.1,0-0.1,0-0.2,0
					C96.6,249.6,95.9,249.1,95.7,248.3z M98.4,248.4C98.5,248.4,98.5,248.4,98.4,248.4L98.4,248.4z M149.4,243.5
					c0-0.3,0-0.7-0.1-1.2c-0.1-1.3-0.2-4.4-0.4-6.1l-41.5,6.4c-2.3,0.3-4.3,1.4-6,2.9l-1.4,1.3l44.1,5L149.4,243.5z"/>
			</g>
		</g>
		<g>
			<g>
				<path class="st0" d="M168.8,291c-7.4,3.5-19.1,8.9-19.3,8.4l-5.8-17.7L131,242.6c-0.1-0.3,12.3-6,19.1-8.2
					c2.9-0.9,5,3.1,6.2,6.1l8.6,22.2l7.4,19C173.6,285.4,172.1,289.5,168.8,291z"/>
			</g>
		</g>
		<g class="st7">
			<g>
				<path class="st9" d="M168.8,291c-7.4,3.5-19.1,8.9-19.3,8.4l-5.8-17.7l-0.9-21.5c0,0,8.8,8.8,17.8,5c1.6-0.7,3-1.6,4.2-2.5
					l7.4,19C173.6,285.4,172.1,289.5,168.8,291z"/>
			</g>
		</g>
		<g>
			<g>
				<path class="st9" d="M148.9,301l-0.7-0.3L148,300l-18.6-56.9c-0.4-1.4,0.6-1.9,2.8-3c1.3-0.7,3.1-1.5,5-2.3
					c2.3-1,8.1-3.5,12.3-4.9c1.8-0.6,5.3-0.5,8.2,7.1l15.9,41.2c1.7,4.4-0.1,9.4-4.2,11.3c-17.1,8-19.4,8.8-20.3,8.6
					C149.1,301,149,301,148.9,301z M149.5,299.5L149.5,299.5L149.5,299.5z M150.6,235.9c-5.7,1.9-14.7,6-17.7,7.5l17.7,54.2
					c1.8-0.7,6.4-2.7,17.6-7.9c2.6-1.2,3.7-4.4,2.6-7.3l-16-41.2c-1.2-3.1-2.6-5-3.7-5.2C150.9,235.8,150.7,235.8,150.6,235.9z"/>
			</g>
		</g>
		<g>
			<g>
				<path class="st0" d="M149,299.7l-33.5-1.6c-5.1-1-8.7-2.5-10.7-7.8l-1-2.7l-10.3-27.2c-0.7-1.8-1-3.7-1-5.4
					c0.1-4.1,3.3-6.2,7.4-7.8l29.2-4.5c4.7-0.7,9.2,1.8,11,6.2l1.9,5.2l13.6,36.7C157.2,295.2,153.8,299.9,149,299.7z"/>
			</g>
		</g>
		<g class="st7">
			<g>
				<path class="st9" d="M149,299.5l-33.5-1.6c-5.1-1-8.7-2.5-10.7-7.8l-1-2.7c7,2.3,18.4,4,28.1-3.6c9.2-7.3,10.6-20.6,10.2-30
					l13.6,36.7C157.3,294.9,153.8,299.7,149,299.5z"/>
			</g>
		</g>
		<g>
			<g>
				<path class="st9" d="M103.3,290.6L92,260.8c-0.7-2-1.1-4-1.1-6c0.1-5.4,4.6-7.8,8.4-9.3l0.2-0.1l29.3-4.6
					c5.4-0.8,10.6,2.1,12.8,7.2l15.5,41.8c1,2.6,0.6,5.5-1.1,7.8c-1.6,2.3-4.3,3.5-7.1,3.4l-33.5-1.6l-0.2,0c0,0-0.1,0-0.1,0
					C110.5,298.5,105.7,297,103.3,290.6z M129.4,244l-29,4.5c-4.4,1.7-6.2,3.5-6.2,6.3c0,1.6,0.3,3.2,0.9,4.8l11.3,29.9
					c1.7,4.5,4.5,5.8,9.4,6.8l33.4,1.6c1.7,0.1,3.3-0.7,4.4-2.1c1-1.4,1.3-3.2,0.7-4.8l-15.5-41.8c-1.1-2.7-3.5-4.6-6.3-5.2
					C131.4,243.8,130.4,243.8,129.4,244z"/>
			</g>
		</g>
		<g>
			<g>
				<g>
					<path class="st0" d="M226.1,222c0,0-22.8,24.4-58.4,30.9c-5.6,1-9.6,6-8.8,11.6c0.4,2.9,2,5.5,6.4,6.4
						c18.2,3.6,68.1-21.9,71.1-35.3C239.3,223.1,226.1,222,226.1,222z"/>
				</g>
			</g>
			<g class="st7">
				<g>
					<path class="st9" d="M236.4,235.6c-3.1,13.4-53,38.9-71.1,35.3c-4.4-0.9-6-3.5-6.4-6.4c-0.4-2.9,0.5-5.6,2.2-7.7
						c0,0,0,0.1,0,0.1c0.4,2.9,2,5.5,6.4,6.4c16.6,3.3,59.6-17.7,69.3-31.5C236.9,232.9,236.8,234.2,236.4,235.6z"/>
				</g>
			</g>
			<g>
				<g>
					<path class="st9" d="M156.7,264.7c-0.9-6.6,3.8-12.8,10.6-14.1c34.4-6.3,57-30,57.2-30.2l0.7-0.8l1.1,0.1c0.3,0,7,0.6,10.6,5.5
						c2.1,2.9,2.7,6.5,1.7,10.8c-1.9,8.2-17.3,18.6-31.1,25.5c-13.7,6.9-32.2,13.5-42.7,11.5c0,0,0,0,0,0
						C160.2,272.1,157.3,269.2,156.7,264.7z M168.1,255.1c-4.5,0.8-7.6,4.8-7,9.1c0.3,2.5,1.7,3.9,4.6,4.5c0,0,0,0,0,0
						c17.7,3.5,65.9-22.1,68.5-33.6c0.7-2.9,0.4-5.3-0.9-7.1c-1.7-2.4-4.8-3.3-6.4-3.6C222.4,228.9,200.7,249.1,168.1,255.1z"/>
				</g>
			</g>
		</g>
		<g>
			<g>
				<g>
					<path class="st0" d="M109,269.9c3.3-0.5,6.4,1.8,6.9,5.1c0.5,3.3-1.8,6.4-5.1,6.9l-11.6,2.8l-4.4-11.9L109,269.9z"/>
					<path class="st9" d="M97.5,285.3l-4.4-11.9c-0.2-0.5-0.1-1,0.1-1.5c0.3-0.5,0.7-0.8,1.2-0.9l14.3-2.9c0,0,0.1,0,0.1,0
						c4.3-0.6,8.3,2.3,8.9,6.6c0.6,4.3-2.3,8.2-6.5,8.9l-11.6,2.8c-0.3,0.1-0.5,0.1-0.8,0C98.2,286.3,97.7,285.9,97.5,285.3z
						 M109.3,271.6l-12.2,2.5l3.1,8.5l10.1-2.4c0.1,0,0.1,0,0.2,0c2.3-0.3,4-2.5,3.6-4.9c-0.3-1.8-1.7-3.2-3.4-3.6
						C110.3,271.6,109.8,271.6,109.3,271.6z"/>
				</g>
				<g>
					<g>
						<g>
							
								<ellipse transform="matrix(0.954 -0.2997 0.2997 0.954 -77.6416 45.6748)" class="st9" cx="110.1" cy="275.9" rx="1.9" ry="2.9"/>
						</g>
						<g>
							<path class="st9" d="M107.8,276.6L107.8,276.6c-0.5-1.8,0-3.5,1.3-3.9c0.7-0.2,1.4,0,2,0.6c0.6,0.5,1,1.2,1.3,2.1
								c0.5,1.8,0,3.5-1.3,3.9c-0.3,0.1-0.6,0.1-0.9,0C109.2,279,108.2,278,107.8,276.6z M109.4,273.6c-0.7,0.2-1,1.4-0.7,2.7l0,0
								c0.4,1.3,1.3,2.2,2.1,1.9c0.7-0.2,1-1.4,0.7-2.7c-0.2-0.6-0.5-1.2-1-1.6c-0.1-0.1-0.4-0.3-0.7-0.4
								C109.6,273.6,109.5,273.6,109.4,273.6z M108.2,276.4L108.2,276.4L108.2,276.4z"/>
						</g>
					</g>
				</g>
			</g>
			<g>
				<path class="st9" d="M144.1,278.1c0.5-0.2,1,0.1,1.1,0.5l1.8,5.3c0.2,0.5-0.1,1-0.5,1.1c-0.2,0.1-0.3,0.1-0.5,0
					c-0.3-0.1-0.6-0.3-0.7-0.6l-1.8-5.3C143.3,278.8,143.6,278.3,144.1,278.1z"/>
				<path class="st9" d="M138.5,263.2c-0.2,0.1-0.3,0.1-0.5,0c-0.3-0.1-0.6-0.3-0.7-0.6l-1.8-5.3c-0.2-0.5,0.1-1,0.5-1.1
					c0.5-0.2,1,0.1,1.1,0.5l1.8,5.3C139.2,262.5,138.9,263,138.5,263.2z"/>
				<path class="st9" d="M140.2,267.2c0.5-0.2,1,0.1,1.1,0.5l1.8,5.3c0.2,0.5-0.1,1-0.5,1.1c-0.2,0.1-0.3,0.1-0.5,0
					c-0.3-0.1-0.6-0.3-0.7-0.6l-1.8-5.3C139.5,267.9,139.8,267.4,140.2,267.2z"/>
				<path class="st9" d="M120.8,250.8c-0.4-0.1-0.6-0.4-0.7-0.7c-0.1-0.5,0.3-0.9,0.7-1l4.4-0.7c0.5-0.1,0.9,0.3,1,0.7
					c0.1,0.5-0.3,0.9-0.7,1l-4.4,0.7C121,250.8,120.9,250.8,120.8,250.8z"/>
				<path class="st9" d="M112.7,250.3l4.4-0.7c0.5-0.1,0.9,0.3,1,0.7c0.1,0.5-0.3,0.9-0.7,1l-4.4,0.7c-0.1,0-0.2,0-0.3,0
					c-0.4-0.1-0.6-0.4-0.7-0.7C111.9,250.9,112.2,250.4,112.7,250.3z"/>
				<path class="st9" d="M104.3,253.3c-0.4-0.1-0.6-0.4-0.7-0.7c-0.1-0.5,0.3-0.9,0.7-1l4.4-0.7c0.5-0.1,0.9,0.3,1,0.7
					c0.1,0.5-0.3,0.9-0.7,1l-4.4,0.7C104.5,253.3,104.4,253.3,104.3,253.3z"/>
				<path class="st9" d="M136.3,292.5l4.3,0.2c0.5,0,0.9,0.4,0.9,0.9c0,0.5-0.4,0.9-0.9,0.9l-4.3-0.2c0,0-0.1,0-0.1,0
					c-0.4-0.1-0.7-0.5-0.7-0.9C135.4,292.9,135.8,292.5,136.3,292.5z"/>
				<path class="st9" d="M127.8,292.4l4.3,0.2c0.5,0,0.9,0.4,0.9,0.9c0,0.5-0.4,0.9-0.9,0.9l-4.3-0.2c0,0-0.1,0-0.1,0
					c-0.4-0.1-0.7-0.5-0.7-0.9C126.9,292.8,127.3,292.4,127.8,292.4z"/>
				<path class="st9" d="M119.8,292.1l4.3,0.2c0.5,0,0.9,0.4,0.9,0.9s-0.4,0.9-0.9,0.9l-4.3-0.2c0,0-0.1,0-0.1,0
					c-0.4-0.1-0.7-0.5-0.7-0.9C118.9,292.4,119.3,292.1,119.8,292.1z"/>
				<path class="st9" d="M99.6,261.6c0.5-0.2,1,0.1,1.1,0.5l1.6,4.4c0.2,0.5-0.1,1-0.5,1.1c-0.2,0.1-0.3,0.1-0.5,0
					c-0.3-0.1-0.6-0.3-0.7-0.6l-1.6-4.4C98.9,262.3,99.2,261.7,99.6,261.6z"/>
				<path class="st9" d="M132.8,250.8c-0.8-1.1-1.8-1.5-3.2-1.4c-0.5,0.1-0.9-0.3-1-0.8c-0.1-0.5,0.3-0.9,0.8-1
					c2.6-0.3,4.1,1,4.9,2.2c0.8,1.2,1.1,2.5,1.1,2.5c0.1,0.5-0.2,0.9-0.7,1c-0.1,0-0.2,0-0.3,0c-0.3-0.1-0.6-0.3-0.7-0.7
					C133.6,252.7,133.4,251.7,132.8,250.8z"/>
				<path class="st9" d="M98,253.6c0.5-0.7,1.2-0.8,1.6-0.9c0.1,0,0.2,0,0.3,0c0,0,0,0,0,0l0,0c0,0,0,0,0,0c0.5,0.1,0.8,0.5,0.7,1
					c-0.1,0.5-0.5,0.8-0.9,0.8c-0.1,0-0.3,0.1-0.4,0.2c-0.1,0.2-0.4,0.8,0.1,2.4c0.1,0.5-0.1,1-0.6,1.1c-0.1,0-0.3,0.1-0.4,0
					c-0.3-0.1-0.6-0.3-0.7-0.6C97.2,255.9,97.3,254.5,98,253.6z"/>
				<path class="st9" d="M109.9,287.7c0.5-0.1,1,0.2,1.1,0.6c0,0.1,0.8,2.9,4.3,3.3c0.5,0,0.8,0.5,0.8,1c0,0.5-0.5,0.8-1,0.8
					c-0.3,0-0.5-0.1-0.8-0.1c-4-0.8-5-4.3-5-4.5C109.1,288.3,109.4,287.8,109.9,287.7z"/>
				<path class="st9" d="M144.8,293c0.7,0.1,2.8,0.3,3.5-0.6c0.4-0.6,0.3-1.7-0.5-3.2c-0.2-0.4,0-1,0.4-1.2c0.4-0.2,1,0,1.2,0.4
					c1.1,2.2,1.2,3.9,0.3,5.1c-1.5,1.9-4.8,1.3-5.2,1.2c-0.5-0.1-0.8-0.6-0.7-1C143.9,293.2,144.3,292.9,144.8,293z"/>
			</g>
		</g>
	</g>
</g>
</svg>
